<?xml version="1.0" encoding="UTF-8"?>
<svg id="uuid-808178a8-71ae-4590-be32-76d2b5699751" data-name="Capa_1" xmlns="http://www.w3.org/2000/svg" viewBox="0 0 582.51 70.82">
  <defs>
    <style>
      .uuid-7e56567a-b8a9-49b8-b585-63efee53edd6 {
        fill: #5b656d;
      }
    </style>
  </defs>
  <g>
    <path class="uuid-7e56567a-b8a9-49b8-b585-63efee53edd6" d="M20.67,50.5s.11-.05.17-.07c.67-.16,1.34-.32,2.01-.48.07-.02.13-.04.21-.06.01-.03.03-.06.04-.1.12-.56.3-1.09.51-1.62,0-.02.02-.05.03-.07,0-.02,0-.06-.02-.07-.06-.07-.12-.13-.18-.19-.42-.42-.83-.85-1.25-1.27-.07-.07-.13-.14-.19-.21,0-.01-.01-.04,0-.05.01-.03.03-.06.05-.09.26-.41.52-.81.78-1.22.15-.23.29-.46.44-.68.02-.04.05-.07.08-.1.02-.02.05-.02.07-.02.03,0,.07.01.1.02.62.19,1.24.37,1.86.56.08.03.17.05.24.07.06-.01.09-.04.12-.08.42-.47.87-.91,1.36-1.3.02-.02.04-.03.06-.05.03-.03.03-.06.02-.1-.02-.06-.04-.12-.06-.17-.18-.51-.36-1.02-.54-1.53-.04-.12-.09-.25-.13-.37-.02-.05,0-.09.04-.11.09-.05.18-.11.27-.16.65-.37,1.29-.73,1.94-1.1.04-.02.08-.04.11-.06.03-.02.07,0,.09.02.02.02.04.04.05.06.36.39.71.77,1.07,1.16.13.14.26.28.39.42.05.06.12.07.19.05.07-.03.15-.05.22-.08.52-.17,1.06-.31,1.6-.4.06,0,.12-.03.17-.05.05-.08.06-.17.08-.25.16-.65.31-1.29.47-1.94,0-.03.02-.07.03-.1.01-.03.04-.06.08-.06.07,0,.14,0,.21,0,.69,0,1.38,0,2.07,0,.06,0,.12,0,.18,0,.03,0,.05.01.08.02.05.08.06.16.09.25.18.64.35,1.28.53,1.92.01.04.03.08.04.13.01.05.05.07.09.08.09.02.17.04.26.05.52.1,1.02.24,1.52.41.04.01.08.03.13.04.04.01.07,0,.1-.03.08-.07.15-.15.22-.22.44-.45.87-.91,1.3-1.36.04-.04.08-.09.14-.13.03.01.06.03.09.04.69.4,1.37.8,2.06,1.2.02,0,.03.02.04.03.03.02.05.05.04.09-.01.06-.02.12-.04.18-.17.61-.34,1.23-.51,1.84-.08.28-.08.24.13.42.39.33.77.69,1.12,1.07.05.05.1.07.16.05.03,0,.05,0,.08-.01.33-.07.66-.15,1-.22.42-.09.84-.18,1.25-.27.03,0,.05,0,.08,0,.04,0,.07,0,.09.04.08.12.15.23.22.35.3.5.61,1,.91,1.5.02.04.04.08.06.11,0,.06-.03.09-.06.12-.32.36-.64.72-.96,1.08-.2.22-.39.44-.59.67-.02.02-.03.04-.04.06,0,.06.02.11.04.16.2.48.34.97.46,1.47,0,.03.01.05.02.08.01.04.04.06.07.07.23.05.46.11.69.16.54.12,1.07.24,1.61.36.03,0,.05,0,.08.02.06.01.09.05.09.11,0,.08,0,.16,0,.24,0,.28,0,.56,0,.84,0,.05,0,.11.04.16.11-.02.22-.03.33-.06.83-.18,1.65-.39,2.45-.66,1.33-.45,2.59-1.04,3.77-1.8.54-.35,1.05-.72,1.53-1.14.62-.54,1.16-1.16,1.59-1.87.16-.27.3-.55.42-.84.04-.1.08-.19.12-.29,0,0,.01,0,.02,0,0,0,.02,0,.02.01,0,.04.02.09.02.13-.01.18-.02.37-.04.55-.06.53-.15,1.05-.3,1.57-.16.56-.39,1.08-.7,1.57-.33.52-.73.98-1.21,1.37-.45.38-.95.68-1.48.94-.99.48-2.02.88-3.08,1.18-.45.13-.91.24-1.37.34-.76.17-1.52.33-2.28.47-.67.12-1.34.24-2.02.34-.54.08-1.09.16-1.63.24-.34.05-.68.08-1.01.13-.36.04-.73.09-1.09.13-.23.03-.45.05-.68.07-.24.03-.49.05-.73.08-.21.02-.42.05-.63.06-.26.02-.52.04-.78.07-.24.02-.49.05-.73.08-.17.02-.35.04-.52.06-.37.04-.75.08-1.12.12-.36.04-.73.09-1.09.13-.2.02-.4.05-.6.07-.25.03-.5.06-.76.08-.07,0-.14.02-.21.02-.11,0-.12-.04-.09-.13.07-.23.17-.44.31-.63.17-.23.38-.44.61-.61.3-.22.63-.38.97-.52.42-.16.85-.28,1.28-.36.62-.12,1.24-.18,1.87-.22.59-.04,1.19-.04,1.78-.05.54,0,1.08-.02,1.63-.03.06,0,.12,0,.18-.01.03,0,.06-.04.06-.07,0-.02,0-.03,0-.05,0-.17,0-.35-.02-.52-.02-.28-.06-.56-.1-.83,0-.03-.02-.07-.03-.1-.01-.02-.04-.04-.06-.04-.02,0-.05,0-.08,0-.09,0-.17,0-.26,0-5.5,0-11,0-16.49,0,0,0-.02,0-.03,0-.46,0-.36-.05-.43.36-.07.37-.09.75-.09,1.12,0,.03,0,.05,0,.08,0,.03.03.07.06.07.08,0,.16,0,.24.01.69.01,1.38.03,2.07.04.56,0,1.12.05,1.67.1.55.05,1.09.14,1.63.27.49.12.97.29,1.42.54.22.12.43.27.62.44.3.27.54.6.67.99.01.04.02.08.03.13,0,.02-.02.06-.04.06-.1,0-.19,0-.29-.02-.26-.03-.52-.06-.78-.09-.18-.02-.36-.04-.55-.06-.43-.05-.87-.1-1.3-.15-.37-.04-.75-.09-1.12-.13-.23-.03-.47-.05-.7-.07-.27-.03-.54-.05-.81-.08-.2-.02-.4-.04-.6-.06-.41-.04-.82-.08-1.23-.12-.37-.04-.75-.09-1.12-.13-.19-.02-.38-.04-.57-.07-.34-.04-.68-.08-1.01-.13-.31-.04-.62-.09-.93-.13-.4-.06-.79-.12-1.19-.18-.39-.06-.78-.13-1.16-.2-.47-.09-.94-.17-1.41-.27-.61-.13-1.21-.26-1.82-.4-1.43-.34-2.81-.85-4.12-1.52-.82-.42-1.53-.99-2.09-1.72-.38-.49-.67-1.02-.88-1.6-.2-.55-.34-1.12-.4-1.7-.03-.25-.05-.5-.08-.76,0-.08-.02-.16.01-.23,0,0,.01,0,.02,0,0,0,.02,0,.02,0,.01.02.03.04.03.07.29.82.76,1.53,1.33,2.18.48.54,1.02,1,1.6,1.43,1.29.94,2.71,1.66,4.22,2.19.95.34,1.92.6,2.9.79.15.03.31.06.46.09.04,0,.07-.02.08-.05.02-.17.03-.35.05-.52.02-.24.04-.47.06-.71,0-.02.01-.03.02-.05ZM29.73,47.61c0-.73,0-1.47,0-2.2,0-.06,0-.12,0-.18,0-.03,0-.05,0-.08,0-.05-.05-.08-.09-.05-.21.15-.43.3-.64.46-.51.4-.97.85-1.38,1.36-.56.68-1,1.43-1.33,2.25-.13.31-.23.62-.31.94,0,.02.02.06.04.06.07,0,.14.01.21.01,1.07,0,2.15,0,3.22,0,.04,0,.09,0,.13,0,.03,0,.05,0,.08,0,.03,0,.07-.03.07-.06,0-.07,0-.14,0-.21,0-.76,0-1.52,0-2.28ZM39.26,47.63c0,.77,0,1.54,0,2.31,0,.25,0,.24.25.24,1.08,0,2.17,0,3.25,0,.05,0,.1,0,.16,0,.02,0,.05-.04.04-.06-.01-.06-.02-.12-.04-.18-.05-.17-.11-.33-.17-.5-.37-1.03-.92-1.95-1.65-2.78-.48-.55-1.02-1.03-1.62-1.44-.06-.04-.1-.1-.18-.09-.04,0-.04.03-.04.22,0,.76,0,1.52,0,2.28ZM35.94,47.85s.08.01.11.01c.33,0,.66,0,1,0,.03,0,.07,0,.1-.02.01,0,.03-.02.04-.03,0-.03.02-.07.02-.1,0-.24,0-.47,0-.71,0-.03,0-.05,0-.08,0-.03-.03-.07-.07-.07-.07,0-.14,0-.21,0-2.2,0-4.4,0-6.6,0-.07,0-.14,0-.21,0-.05,0-.08.04-.08.09,0,.23,0,.45,0,.68,0,.25,0,.24.24.24.85,0,1.69,0,2.54,0,.05,0,.1,0,.16,0,.04,0,.07-.02.09-.05.02-.04.04-.08.07-.11.32-.55,1-.85,1.61-.75.46.08.83.31,1.09.71.04.06.07.12.12.2ZM31.63,44.14s-.02.04-.02.05c0,.27,0,.54,0,.81,0,.04.04.08.08.08.07,0,.14,0,.21,0,.74,0,1.48,0,2.23,0,.08,0,.16,0,.23-.01.03,0,.06-.04.07-.07,0-.02,0-.03,0-.05,0-.38,0-.77,0-1.15,0-.03,0-.05-.01-.08,0-.02-.03-.04-.05-.05-.03-.01-.07-.01-.1-.01-.16,0-.31.02-.47.03-.57.03-1.13.14-1.67.28-.17.04-.34.08-.49.16ZM31.52,46.54c.39,0,.79,0,1.18,0,.07,0,.14,0,.21,0,.08,0,.11-.03.11-.11,0-.28,0-.56,0-.84,0-.02,0-.03,0-.05,0-.03-.04-.06-.07-.07-.05,0-.1,0-.16,0-.85,0-1.69,0-2.54,0-.04,0-.09,0-.13,0-.05,0-.08.04-.08.08,0,.31,0,.61,0,.92,0,0,0,.02,0,.03.01.01.02.03.04.03.05,0,.1.01.16.01.43,0,.86,0,1.28,0ZM36.08,45.09c.32,0,.65,0,.97,0,.08,0,.16,0,.24,0,.07,0,.1-.03.1-.09,0-.25,0-.51,0-.76,0-.05-.03-.08-.07-.1-.18-.06-.37-.12-.55-.17-.43-.12-.87-.2-1.31-.25-.18-.02-.37-.03-.55-.04-.06,0-.09.03-.1.1,0,.4,0,.8,0,1.21,0,0,0,.02,0,.03,0,.03.03.07.06.07.07,0,.14.01.21.01.33,0,.66,0,1,0ZM37.58,46.54h0c.37,0,.73,0,1.1,0,.07,0,.14,0,.21,0,.03,0,.04-.03.06-.05,0-.01,0-.03,0-.05,0-.28,0-.56,0-.84,0-.02,0-.03,0-.05,0-.03-.04-.06-.07-.07-.03,0-.05,0-.08,0-.12,0-.24,0-.37,0-.65,0-1.31,0-1.96,0-.07,0-.14,0-.21.01-.02,0-.04.03-.06.05,0,.01-.01.03-.01.05,0,.29,0,.58,0,.86,0,.02,0,.04.01.05,0,.01.02.03.04.03.04,0,.09.01.13.01.4,0,.8,0,1.2,0ZM34.61,46.54c.33,0,.66,0,.99,0,.05,0,.1,0,.16-.01.01,0,.03-.02.04-.03,0-.03.01-.07.01-.1,0-.23,0-.45,0-.68,0-.25,0-.25-.24-.25-.64,0-1.29,0-1.93,0-.03,0-.07,0-.1,0-.1,0-.13.03-.13.12,0,.28,0,.56,0,.84,0,.02,0,.04,0,.05.01.02.03.05.05.05.06,0,.12.01.18.01.32,0,.64,0,.97,0ZM37.05,48.16h0c-.27,0-.54,0-.81,0-.17,0-.18.02-.17.17,0,.12,0,.24,0,.37,0,.07,0,.14,0,.21,0,.05.03.08.08.09.07,0,.14,0,.21,0,.44,0,.89,0,1.33,0,.36,0,.32.04.32-.32,0-.14,0-.28,0-.42,0-.06-.04-.09-.1-.09-.07,0-.14,0-.21,0-.22,0-.44,0-.65,0ZM30.97,50.17h0c.24,0,.49,0,.73,0,.05,0,.1,0,.16-.01.03,0,.06-.04.06-.07,0-.24,0-.47,0-.71,0,0,0-.02,0-.03-.01-.01-.02-.03-.04-.04-.05,0-.1-.02-.16-.02-.49,0-.98,0-1.46,0-.03,0-.07,0-.1,0-.08,0-.12.03-.12.1,0,.22,0,.44,0,.65,0,.02,0,.04,0,.05,0,.02.02.03.03.04.04,0,.09.02.13.02.25,0,.51,0,.76,0ZM32.01,48.16c-.23,0-.45,0-.68,0-.05,0-.1,0-.16,0-.03,0-.06.04-.06.07,0,.23,0,.45,0,.68,0,.04.04.08.09.08.03,0,.05,0,.08,0,.49,0,.97,0,1.46,0,.04,0,.09,0,.13-.01.01,0,.03-.02.04-.03,0-.03.01-.07.01-.1,0-.18,0-.37,0-.55,0-.03,0-.05,0-.08,0-.02-.03-.05-.05-.05-.05,0-.1,0-.16,0-.23,0-.47,0-.7,0ZM38.28,47.86s0,0,0,0c.12,0,.24,0,.37,0,.08,0,.16,0,.24,0,.03,0,.06-.04.07-.07,0-.03,0-.05,0-.08,0-.23,0-.45,0-.68,0-.03,0-.07,0-.1,0-.03-.04-.06-.07-.07-.03,0-.05,0-.08,0-.36,0-.72,0-1.07,0-.02,0-.03,0-.05,0-.05,0-.08.04-.08.09,0,.28,0,.56,0,.84,0,.05.03.08.08.08.2,0,.4,0,.6,0ZM38.26,50.17h0s.07,0,.1,0c.16,0,.31,0,.47,0,.08,0,.12-.04.12-.11,0-.22,0-.44,0-.65,0-.02,0-.04-.01-.05,0-.01-.02-.03-.04-.03-.04,0-.09-.02-.13-.02-.31,0-.63,0-.94,0-.05,0-.1,0-.16,0-.05,0-.08.03-.08.08,0,.23,0,.47,0,.7,0,.03.03.07.07.07.03,0,.05,0,.08,0,.17,0,.35,0,.52,0ZM36.64,50.17h0c.13,0,.26,0,.39,0,.15,0,.17-.02.17-.16,0-.18,0-.37,0-.55,0-.03,0-.05,0-.08,0-.03-.04-.07-.07-.07,0,0-.02,0-.03,0-.31,0-.63,0-.94,0-.05,0-.09.04-.09.08,0,.24,0,.47,0,.71,0,.03.03.07.07.07.04,0,.09,0,.13,0,.12,0,.24,0,.37,0ZM30.61,45.09s0,0,0,0c.14,0,.28,0,.42,0,.04,0,.09,0,.13,0,.03,0,.07-.04.07-.07,0-.21,0-.42,0-.63,0-.06-.04-.08-.11-.06-.35.14-.68.3-1.01.49-.02.01-.04.03-.05.05-.03.06-.03.12,0,.18,0,.02.04.04.06.04.17,0,.33,0,.5.01ZM38.94,44.89s-.06-.05-.09-.06c-.14-.08-.27-.15-.41-.22-.16-.08-.33-.15-.5-.23-.02-.01-.05-.02-.07-.03-.04-.02-.09.01-.09.06,0,.19,0,.38,0,.57,0,.02,0,.04.01.05.01.02.03.04.05.05.01,0,.03.01.05.01.32,0,.64,0,.96,0,0,0,.02,0,.03,0,.04,0,.07-.04.07-.09,0-.03,0-.07,0-.1ZM30.73,48.6c0-.11,0-.23,0-.34,0-.05-.03-.09-.08-.09-.18,0-.37,0-.55,0-.03,0-.06.04-.06.07,0,.16,0,.31,0,.47,0,.32-.02.29.3.29.46,0,.39.07.39-.4ZM32.91,49.72h0c0-.1,0-.21,0-.31,0-.06-.04-.1-.09-.1-.14,0-.28,0-.42,0-.06,0-.1.03-.1.09,0,.23,0,.45,0,.68,0,.05.03.09.08.09.15,0,.29,0,.44,0,.05,0,.09-.04.09-.11,0-.11,0-.23,0-.34ZM38.95,48.57s0,0,0,0c0-.1,0-.21,0-.31,0-.05-.03-.09-.08-.09-.13,0-.26,0-.39,0-.03,0-.07.03-.07.06,0,.03,0,.05,0,.08,0,.17,0,.35,0,.52,0,.03,0,.05,0,.08,0,.05.03.09.08.09.06,0,.12,0,.18,0,.31,0,.29.02.29-.28,0-.05,0-.1,0-.16Z"/>
    <path class="uuid-7e56567a-b8a9-49b8-b585-63efee53edd6" d="M25.09,25.85s.05-.03.07-.03c.09,0,.17,0,.26,0,2.5,0,5,0,7.5,0,.1,0,.19,0,.29,0,.03,0,.07-.03.07-.07,0-.04,0-.09,0-.13,0-.61,0-1.22,0-1.84,0-.04,0-.09,0-.13,0-.03-.03-.05-.05-.06-.02,0-.05-.01-.08-.01-.08,0-.16,0-.24,0-1.66,0-3.32,0-4.98,0-.09,0-.17,0-.26-.02,0,0-.02-.03-.02-.04.01-.03.03-.06.05-.09.3-.43.6-.86.91-1.28.3-.42.6-.84.89-1.26.02-.03.03-.06.05-.09,0-.02-.02-.06-.04-.06-.04,0-.09,0-.13,0-.31,0-.63,0-.94,0-.09,0-.17,0-.25,0-.03-.04-.03-.07,0-.1.13-.18.25-.36.37-.54.23-.33.47-.65.7-.98.46-.65.92-1.3,1.38-1.95.1-.14.19-.27.29-.41.03-.04,0-.09-.05-.09-.03,0-.05,0-.08,0-.27,0-.54,0-.81,0-.14,0-.28,0-.42-.01,0,0-.03-.03-.02-.04.02-.05.05-.09.08-.14.26-.4.53-.8.79-1.2.6-.91,1.2-1.82,1.8-2.74.34-.51.67-1.02,1.01-1.53.37-.55.73-1.11,1.1-1.66.03-.04.06-.09.09-.13.02-.03.07-.03.09,0,.02.03.04.06.06.09.2.3.39.6.59.9.6.91,1.2,1.82,1.8,2.74.34.52.68,1.04,1.02,1.55.4.61.81,1.22,1.21,1.84.06.09.12.19.18.29,0,0-.01.04-.02.04-.05,0-.1.01-.16.01-.33,0-.66,0-1,0-.06,0-.12,0-.18,0-.02,0-.04.04-.03.06.02.04.04.08.07.11.24.34.49.68.73,1.03.64.91,1.28,1.81,1.92,2.72.02.03.04.06.05.09,0,.01,0,.03-.01.06-.06,0-.12,0-.18,0-.31,0-.61,0-.92,0-.07,0-.14,0-.21,0-.02,0-.05,0-.07.02-.02.02,0,.05,0,.07.06.09.13.19.19.28.23.32.46.64.68.96.33.47.67.94,1,1.41,0,.01.02.03.02.05,0,.01-.01.03-.02.04-.02,0-.05.01-.08.01-.08,0-.16,0-.24,0-1.65,0-3.3,0-4.96,0-.09,0-.17,0-.26,0-.03,0-.07.04-.07.07,0,.03,0,.07,0,.1,0,.63,0,1.26,0,1.89,0,.03,0,.05,0,.08,0,.04.04.08.08.09.03,0,.05,0,.08,0,.08,0,.16,0,.24,0,2.39,0,4.77,0,7.16,0,.1,0,.19,0,.29,0,.06,0,.09.04.09.1-.02.29-.02.58,0,.86,0,.05-.03.09-.08.09-.1,0-.19,0-.29,0-2.13,0-4.26,0-6.4,0-3.73,0-7.46,0-11.2,0-.07,0-.14,0-.21,0-.33,0-.29.02-.29-.29,0-.21,0-.42-.01-.63,0-.03,0-.07,0-.11Z"/>
    <path class="uuid-7e56567a-b8a9-49b8-b585-63efee53edd6" d="M34.83,55.48s.07-.02.1,0c.24.08.48.17.72.25.67.25,1.36.43,2.07.57.39.08.79.14,1.19.19.35.04.7.06,1.05.08.59.04,1.17.04,1.76.03.49-.01.98-.04,1.47-.08.26-.03.52-.04.78-.07.3-.04.61-.08.91-.12.52-.08,1.03-.16,1.55-.25.32-.05.64-.11.95-.17.39-.07.79-.15,1.18-.22.28-.05.57-.08.86-.12.17-.02.35-.04.52-.07.28-.05.57-.07.86-.1.27-.02.54-.05.81-.08.18-.02.37-.03.55-.04.64-.02,1.28-.05,1.91-.05.46,0,.93.02,1.39.04.43.02.85.05,1.28.07.1,0,.19.02.29.03.41.06.81.12,1.22.18.24.04.48.07.73.11.03,0,.07.02.1.03.61.16,1.22.32,1.82.49.32.09.63.19.95.29.37.12.73.29,1.08.48.35.19.69.4,1.03.63.65.44,1.16,1,1.55,1.68.03.05.05.09.07.14.02.04-.01.09-.06.1-.03,0-.07.01-.1.01-.09,0-.17.01-.26.01-.72.02-1.45.05-2.17.07-.07,0-.14,0-.21.01-.03,0-.06.05-.06.08.02.08.03.15.05.23.17.63.35,1.26.52,1.89.04.14.09.28.13.43.02.07.03.14.05.2,0,.03-.04.06-.07.06-.02,0-.05-.01-.07-.03-.08-.04-.15-.09-.23-.13-.7-.42-1.43-.78-2.18-1.08-.61-.25-1.22-.47-1.86-.64-.39-.1-.78-.19-1.17-.28-.08-.02-.17-.04-.25-.06-.38-.1-.77-.15-1.16-.21-.27-.04-.54-.08-.8-.12-.1-.01-.21-.03-.31-.03-.5-.02-1-.04-1.49-.05-.17,0-.33,0-.5,0-.31.01-.61.03-.92.04-.27,0-.54.04-.81.07-.41.05-.82.1-1.22.15-.27.04-.54.08-.8.12-.28.04-.55.09-.83.13-.26.04-.52.09-.77.13-.51.09-1.01.19-1.52.27-.4.07-.81.12-1.22.18-.12.02-.24.04-.36.05-.33.04-.66.07-.99.11-.24.03-.49.06-.73.08-.32.03-.64.05-.97.07-.31.02-.63.02-.94.03-.32,0-.65,0-.97,0-.28,0-.56-.01-.84-.02-.32-.02-.65-.03-.97-.06-.11,0-.22-.04-.34-.06-.61-.12-1.22-.23-1.82-.36-.49-.1-.96-.27-1.41-.48-.05-.02-.08-.07-.08-.12,0-.07,0-.14,0-.21,0-1.41,0-2.81,0-4.22,0-.1-.01-.19.02-.28ZM45.32,60.02c.15,0,.31-.02.46-.06.2-.06.39-.15.55-.29.28-.26.33-.66.13-.95-.07-.1-.15-.19-.26-.24-.04-.02-.05-.08-.03-.11.04-.06.08-.12.11-.18.1-.19.1-.38-.01-.57,0-.02-.02-.03-.03-.05-.11-.17-.27-.27-.46-.32-.38-.1-.74-.05-1.09.11-.1.04-.18.11-.25.18-.13.12-.19.27-.21.44-.02.17.04.33.16.45.05.06.11.11.17.16.02.02.01.06,0,.07-.02.02-.03.04-.05.06-.18.16-.21.37-.2.6,0,.07.02.14.06.2.1.17.22.31.41.39.18.07.36.12.57.11ZM55.98,57.99c.11-.01.18-.02.25-.02.03,0,.05,0,.08,0,.04,0,.08.04.07.09,0,.03,0,.05-.02.08-.09.22-.26.35-.5.37-.2.02-.4,0-.59-.09-.05-.02-.09-.05-.14-.07-.05-.02-.11,0-.13.06-.04.11-.1.22-.18.32,0,0,0,.02,0,.02-.01.02,0,.08.03.09.02.01.04.03.07.04.23.09.47.13.71.15.19.02.38,0,.57-.06.38-.11.64-.34.77-.72.09-.26.13-.52.14-.8,0-.12-.01-.24-.04-.36-.08-.3-.26-.53-.54-.67-.19-.1-.39-.14-.61-.15-.22,0-.43.04-.63.15-.24.13-.37.34-.41.6-.02.12,0,.23.03.34.09.37.37.6.75.63.12,0,.24,0,.33.01ZM50.63,56.4c-.06,0-.12,0-.18,0-.29.03-.56.12-.79.32-.08.07-.15.15-.2.24-.03.06-.02.13.04.16.12.06.24.11.36.16.04.02.09,0,.12-.02.03-.03.06-.06.09-.1.06-.07.13-.11.21-.15.16-.06.33-.06.49-.02.11.03.16.11.16.22,0,.09-.02.17-.06.25-.04.09-.1.16-.16.23-.23.26-.46.52-.7.78-.05.05-.1.1-.14.16-.08.12-.12.25-.09.4.02.09.09.15.19.15.12,0,.24-.01.37-.02.37-.03.73-.06,1.09-.09.1,0,.19-.02.28-.04.12-.02.19-.13.19-.25,0-.04,0-.09-.02-.13-.03-.1-.1-.16-.21-.17-.05,0-.1,0-.16,0-.17.01-.35.03-.52.04-.07,0-.14,0-.21,0,0,0-.02-.03-.02-.04.01-.03.03-.06.06-.09.15-.18.31-.35.46-.53.09-.11.17-.22.23-.35.1-.23.1-.46-.01-.68-.03-.05-.06-.11-.09-.16-.08-.12-.19-.2-.33-.24-.14-.05-.29-.05-.44-.05ZM40.87,58.98s0,0,0,0c.01-.39.03-.78.04-1.18,0-.03,0-.07-.02-.1,0-.01-.02-.03-.03-.04-.03,0-.07-.01-.1-.02-.21-.01-.42-.02-.63-.03-.1,0-.19,0-.29,0-.07,0-.12.04-.12.11,0,.08,0,.16,0,.24,0,.03,0,.07,0,.1,0,.03.04.07.06.07.03,0,.05,0,.08.01.08,0,.16.01.23.02.06,0,.09.04.09.11,0,.08,0,.16,0,.24-.02.51-.04,1.03-.07,1.54-.01.28,0,.27.26.28.1,0,.21,0,.31,0,.06,0,.1-.04.1-.1,0-.08.01-.16.01-.23.01-.34.02-.68.04-1.02Z"/>
    <path class="uuid-7e56567a-b8a9-49b8-b585-63efee53edd6" d="M34.29,60.31c-.06.03-.11.06-.16.08-.53.23-1.07.42-1.64.55-.25.05-.5.1-.75.13-.36.05-.73.1-1.09.14-.34.03-.68.06-1.02.07-.79.03-1.59.03-2.39,0-.43-.02-.85-.04-1.28-.09-.2-.02-.4-.04-.6-.06-.5-.05-1.01-.12-1.51-.2-.39-.06-.78-.12-1.17-.18-.34-.06-.69-.12-1.03-.18-.58-.1-1.17-.22-1.76-.3-.4-.06-.79-.13-1.19-.18-.21-.03-.42-.04-.63-.07-.13-.01-.26-.03-.39-.04-.41-.03-.82-.08-1.23-.08-.44,0-.87-.02-1.31-.03-.13,0-.26,0-.39.02-.3.02-.59.05-.89.07-.23.02-.45.03-.68.06-.14.01-.28.04-.41.06-.4.07-.81.14-1.21.21-.1.02-.2.04-.31.07-.44.12-.88.23-1.32.35-.57.16-1.13.36-1.68.58-.68.27-1.34.59-1.99.94-.15.08-.31.16-.47.23-.02,0-.03.01-.05.02-.02,0-.06-.02-.06-.04,0-.03,0-.05,0-.08.1-.35.2-.71.3-1.06.15-.51.3-1.02.45-1.53,0-.02.02-.05.01-.08,0-.02-.02-.05-.04-.06-.02-.01-.05-.02-.07-.02-.1,0-.21,0-.31-.01-.31-.01-.63-.03-.94-.04-.2,0-.4-.01-.6-.02-.27-.01-.54-.02-.81-.04-.03,0-.07-.01-.1-.02-.01,0-.03-.03-.02-.04.01-.04.02-.08.04-.12.21-.41.49-.76.81-1.09.61-.61,1.32-1.06,2.1-1.41.73-.33,1.5-.58,2.27-.79.29-.08.57-.15.86-.21.36-.08.72-.14,1.08-.21.13-.02.26-.04.39-.07.34-.08.69-.11,1.04-.14.21-.02.42-.04.63-.07.36-.05.73-.07,1.1-.08.36-.01.72-.02,1.07-.03.05,0,.1,0,.16,0,.52,0,1.03,0,1.55.02.25,0,.51.03.76.04.1,0,.19.01.29.02.48.03.96.07,1.43.14.2.03.4.05.6.07.29.03.57.07.86.12.45.08.89.16,1.34.25.45.08.89.16,1.34.24.4.07.81.14,1.22.18.33.04.66.09.99.13.23.03.47.05.7.08.35.04.7.05,1.05.07.52.03,1.05.03,1.57,0,.1,0,.19-.01.29-.01.39-.01.78-.05,1.18-.1.35-.04.69-.08,1.04-.13.43-.07.86-.16,1.28-.27.51-.14,1.02-.32,1.51-.52.05-.02.1-.03.15-.05.01,0,.03.01.04.03,0,.01.01.03.01.05,0,.06,0,.12,0,.18,0,1.42,0,2.85,0,4.27,0,.09,0,.17,0,.28ZM23.07,58.3s.07,0,.09.04c.18.31.36.62.54.93.08.14.15.27.23.41.03.05.05.09.08.13.12.17.29.24.49.25.07,0,.14-.05.16-.11,0-.03.02-.07.02-.1.1-.56.2-1.12.3-1.67.04-.21.07-.41.11-.62.02-.09-.02-.14-.1-.15-.1-.02-.21-.03-.31-.04-.06,0-.12,0-.18-.01-.03,0-.07.03-.08.06-.01.04-.03.08-.04.12-.04.29-.08.57-.12.86-.02.14-.04.28-.06.41,0,.02-.02.03-.04.03-.02,0-.04,0-.04-.02-.02-.04-.05-.07-.07-.11-.2-.39-.4-.77-.61-1.16-.06-.11-.12-.21-.17-.32-.03-.06-.08-.09-.14-.11-.11-.03-.22-.05-.33-.08-.03,0-.07-.01-.1,0-.02,0-.05.02-.06.04-.02.03-.03.06-.03.1-.06.33-.11.65-.17.98-.05.27-.1.55-.15.82-.03.18-.06.36-.09.54-.01.08.03.14.11.15.13.02.26.05.39.07.08.01.12-.02.14-.09.01-.04.02-.08.03-.13.06-.33.11-.65.17-.98.01-.08.03-.15.05-.22ZM33.01,59.68s.02-.07,0-.1c-.12-.17-.24-.34-.37-.51-.39-.54-.78-1.08-1.17-1.61-.03-.04-.05-.07-.08-.1-.05-.04-.1-.07-.17-.06-.15.03-.29.06-.44.09-.06.01-.09.05-.11.1,0,.02,0,.03-.01.05-.21.83-.41,1.66-.62,2.49-.01.05-.02.1-.03.15,0,.04.04.09.07.09.18-.02.36-.05.54-.11.05-.02.09-.06.11-.11.02-.05.02-.1.03-.15.01-.08.02-.16.03-.23.01-.07.05-.11.12-.12.33-.06.65-.13.98-.19.07-.01.14.01.19.06.06.05.1.12.14.19.03.05.05.11.08.16.01.02.06.04.09.03,0,0,.02,0,.03,0,.17-.08.35-.11.53-.11.02,0,.03,0,.05-.01ZM28.74,59.52s0,0-.01,0c0-.13,0-.26,0-.39,0-.04,0-.09-.02-.13-.01-.04-.04-.08-.09-.09-.13-.02-.26-.02-.39,0-.04,0-.06.04-.07.07-.01.04-.02.09-.02.13-.01.15-.02.3-.03.44,0,.1-.06.17-.15.19-.05.01-.1.03-.15.03-.46.06-.9-.21-.99-.69-.07-.35.09-.69.41-.86.15-.08.31-.11.48-.11.11,0,.21.01.3.07.07.04.14.07.21.12.08.05.17.05.25.01.08-.03.16-.07.22-.13.03-.02.05-.05.06-.08,0-.02.01-.06,0-.07-.03-.05-.07-.1-.11-.14-.15-.14-.33-.23-.52-.29-.4-.11-.8-.07-1.18.1-.37.16-.61.43-.73.81-.07.21-.08.43-.05.65.09.62.52,1,.98,1.11.23.06.47.07.7.06.29-.02.56-.11.82-.24.05-.03.08-.07.08-.13,0-.15,0-.3,0-.45ZM19.74,56.54c-.1-.03-.17.04-.23.14,0,0,0,.02-.01.02-.34.53-.68,1.06-1.02,1.58-.11.18-.23.35-.34.53-.02.03-.04.06-.04.09,0,.02.01.05.03.07.02.02.05.03.07.03.14.02.28.04.42.06.02,0,.04,0,.05,0,.04,0,.07-.02.09-.05.03-.03.05-.07.07-.11.05-.08.09-.17.14-.25.04-.07.1-.1.18-.08.33.05.66.1.98.15.03,0,.05.01.07.02.04.02.08.04.09.09.02.06.03.12.05.18.02.08.03.15.05.23.01.06.05.09.11.1.15.03.31.06.46.08.05,0,.11-.04.1-.09-.02-.08-.04-.15-.06-.23-.17-.63-.35-1.26-.52-1.89-.04-.15-.08-.3-.13-.45-.02-.07-.06-.12-.14-.14-.14-.04-.29-.07-.46-.07ZM13.83,58.86s0,0,0,0c.1,0,.19,0,.29,0,.06,0,.08-.06.06-.12-.02-.04-.04-.08-.07-.11-.15-.24-.3-.47-.45-.71-.25-.39-.5-.78-.75-1.17-.05-.08-.11-.16-.16-.24-.05-.08-.13-.12-.22-.11-.14.01-.28.03-.42.04-.16.01-.2.03-.24.19-.04.17-.09.34-.13.51-.16.63-.31,1.25-.46,1.88-.01.04-.02.09-.02.13,0,.03.03.07.06.07.14,0,.28,0,.42-.04.05-.01.09-.05.12-.1.02-.05.04-.1.06-.15.03-.08.03-.17.05-.26.01-.06.05-.09.1-.11.02-.01.05-.02.08-.02.34-.03.68-.05,1.02-.08.1,0,.17.04.21.12.03.06.05.13.08.19.02.04.06.07.1.07.1,0,.19,0,.29,0ZM9.77,56.83c-.15.04-.29.09-.43.14-.52.18-1.04.35-1.56.53-.06.02-.11.04-.17.06-.03.01-.06.06-.05.08.01.05.02.1.04.15.02.08.04.17.07.25,0,.01.03.02.04.02.03,0,.05,0,.08-.01.18-.07.36-.14.54-.21.02,0,.05-.02.08-.02.02,0,.04,0,.05.02.02.04.04.08.05.12.19.55.38,1.1.57,1.66.03.07.05.15.08.22,0,.02.06.05.09.04.17-.07.34-.13.51-.2.02,0,.04-.06.03-.09-.02-.07-.05-.15-.07-.22-.19-.55-.38-1.1-.57-1.66,0-.02-.01-.05,0-.08,0-.02.01-.03.03-.04.02-.01.05-.03.07-.03.19-.05.39-.09.58-.14.11-.03.13-.06.11-.17-.02-.11-.05-.22-.08-.33,0-.03-.03-.06-.05-.09ZM15.94,57.27s0,0,0,0c.01-.25.03-.51.04-.76,0-.08,0-.16,0-.24,0-.04-.05-.09-.09-.09-.16,0-.31,0-.47,0-.04,0-.09.04-.09.08,0,.03-.01.07-.01.1-.03.76-.06,1.52-.09,2.28,0,.02,0,.03,0,.05,0,.1.04.15.14.15.03,0,.05,0,.08,0,.37.02.73.03,1.1.04.17,0,.33.01.5.01.04,0,.09,0,.13,0,.03,0,.07-.04.07-.07.02-.13.02-.26.01-.39,0-.02-.04-.06-.07-.07-.04,0-.09-.01-.13-.01-.25-.01-.51-.02-.76-.03-.09,0-.17,0-.26-.01-.07,0-.12-.05-.12-.12,0-.07,0-.14,0-.21.01-.24.02-.49.04-.73Z"/>
    <path class="uuid-7e56567a-b8a9-49b8-b585-63efee53edd6" d="M19.21,38.33c.03.05.04.08.06.11.32.52.58,1.07.76,1.66,0,.02,0,.03.02.05.02.04.05.07.09.08.3.05.6.11.9.16.21.04.43.08.64.12.04,0,.09.02.13.04.02,0,.04.03.05.05,0,.01,0,.03,0,.05.02.31.04.61.05.92.02.38.04.77.06,1.15,0,.05,0,.1,0,.16,0,.04-.02.07-.05.08-.05.02-.1.04-.15.05-.42.13-.84.25-1.25.38-.12.04-.24.06-.35.13,0,.03-.02.06-.03.09-.09.41-.22.81-.39,1.19-.01.03-.03.06-.04.1,0,.03,0,.07,0,.1.02.06.06.11.09.16.24.39.48.77.72,1.16.17.28.18.21-.03.46-.4.49-.81.98-1.22,1.47-.02.03-.04.06-.07.08-.02.01-.05.02-.07.02-.06-.02-.11-.04-.17-.07-.43-.18-.85-.36-1.28-.54-.06-.02-.11-.04-.17-.07-.04-.02-.09,0-.12.02-.01,0-.03.02-.04.03-.47.33-.98.6-1.52.81-.02,0-.05.02-.07.04-.01,0-.02.04-.01.04.02.04.05.07.08.1.2.18.4.37.61.54.24.2.49.4.73.6.34.27.7.52,1.09.73.18.1.35.19.51.32.01,0,.01.03.02.04-.02,0-.03.01-.05.01-.05,0-.1-.02-.15-.04-.72-.22-1.43-.46-2.13-.73-.37-.14-.72-.31-1.07-.49-.49-.25-.97-.51-1.44-.8-.51-.32-1-.68-1.45-1.07-.2-.18-.4-.36-.6-.55-.42-.41-.75-.87-1.04-1.38-.21-.38-.39-.78-.5-1.21-.08-.28-.13-.56-.14-.85-.02-.38.03-.75.15-1.11.17-.51.45-.97.8-1.37.41-.46.89-.84,1.42-1.15.01,0,.03,0,.05,0,.02,0,.03.03.03.06-.02.24-.04.47-.06.71-.02.38-.03.75,0,1.13.02.23.03.45.06.68.08.66.25,1.3.47,1.93.21.59.49,1.16.82,1.69.02.04.05.07.07.11.02.03.05.04.09.04.15,0,.29-.05.44-.09.96-.28,1.76-.8,2.38-1.58.47-.59.78-1.26.91-2.01.14-.81.07-1.6-.22-2.37-.05-.15-.13-.29-.19-.43-.02-.04-.07-.05-.11-.02-.03.02-.05.04-.08.07-.09.08-.18.16-.28.24-.53.46-1.04.93-1.52,1.44-.37.4-.69.83-.94,1.32-.29.56-.46,1.15-.54,1.77-.01.11-.03.22-.05.34,0,0,0,.01-.01.02-.02,0-.04,0-.05-.01-.02-.03-.04-.06-.05-.09-.14-.29-.24-.6-.34-.91-.14-.45-.25-.91-.32-1.38-.1-.72-.15-1.44-.09-2.17.02-.25.04-.51.08-.76.04-.27.03-.26.24-.44.07-.06.15-.12.23-.17.48-.32.96-.65,1.44-.96.39-.25.79-.49,1.2-.7.24-.12.47-.26.7-.41.41-.28.79-.61,1.1-1,.08-.1.16-.21.23-.32.34-.56.53-1.17.53-1.84,0-.31-.03-.61-.11-.91-.13-.5-.36-.95-.7-1.33-.43-.49-.95-.84-1.54-1.1-.18-.08-.37-.15-.56-.22,0,0,0-.01-.01-.02,0-.02,0-.03.03-.03,0,0,.02,0,.03,0,.22,0,.44.01.65.04.26.03.52.07.78.12.56.12,1.08.33,1.57.63.8.49,1.37,1.17,1.72,2.05.21.54.31,1.09.28,1.67-.02.4-.11.79-.25,1.17-.24.61-.6,1.14-1.02,1.64-.12.15-.26.29-.39.43-.03.03-.06.07-.09.11Z"/>
    <path class="uuid-7e56567a-b8a9-49b8-b585-63efee53edd6" d="M54.7,45.25c-.03-.1-.04-.2-.05-.29-.08-.73-.3-1.42-.67-2.05-.19-.33-.41-.63-.66-.91-.49-.54-1.02-1.03-1.57-1.51-.15-.13-.3-.27-.45-.4-.05-.04-.09-.09-.15-.1-.04.02-.06.06-.08.1-.13.25-.22.51-.3.78-.12.43-.18.87-.17,1.32.03.79.24,1.53.65,2.21.19.31.4.59.66.85.68.68,1.49,1.12,2.44,1.29.05,0,.1.02.15.03.02,0,.05-.01.07-.03.03-.03.05-.07.07-.11.26-.43.49-.89.68-1.36.25-.62.43-1.26.55-1.91.14-.79.2-1.6.14-2.4-.01-.17-.02-.35-.02-.52,0-.04.04-.06.07-.04,0,0,.02,0,.02.01.53.36,1.03.75,1.44,1.25.34.42.61.88.75,1.4.1.37.13.74.1,1.12-.04.47-.16.91-.35,1.34-.27.62-.65,1.18-1.11,1.68-.62.67-1.32,1.25-2.07,1.76-.96.64-1.98,1.14-3.05,1.56-.59.23-1.18.43-1.78.61-.04.01-.08.02-.13.03,0,0-.02,0-.02,0,0-.01,0-.03,0-.04,0-.01.03-.02.04-.03.04-.02.07-.05.11-.07.62-.36,1.21-.76,1.78-1.2.36-.28.7-.58,1.03-.9.03-.02.04-.05.04-.09-.66-.3-.53-.15-1.78-.93-.06,0-.12.02-.17.05-.47.2-.95.4-1.42.6-.02.01-.05.02-.07.03-.04.02-.07,0-.1-.02-.09-.1-.17-.2-.26-.3-.36-.43-.71-.86-1.07-1.29-.03-.04-.07-.08-.1-.12-.02-.03-.03-.07,0-.1.05-.09.11-.18.16-.27.23-.37.47-.74.7-1.11.02-.04.05-.07.07-.11.03-.05.03-.1,0-.15-.06-.14-.11-.28-.17-.41-.11-.27-.19-.54-.25-.83,0-.04-.03-.08-.04-.13-.08-.02-.15-.05-.22-.07-.44-.14-.88-.27-1.33-.41-.07-.02-.15-.05-.23-.08,0-.04-.02-.09-.02-.13,0-.16,0-.31.02-.47.03-.54.06-1.08.09-1.62,0-.05.01-.1.02-.16.06-.02.12-.04.18-.05.42-.08.84-.15,1.26-.23.09-.02.19-.04.28-.06.04,0,.06-.03.07-.07.05-.14.1-.28.15-.42.16-.45.36-.87.62-1.27.02-.03.04-.06.05-.09.04-.07.04-.09-.02-.16-.06-.06-.12-.13-.18-.19-.43-.45-.8-.95-1.08-1.51-.31-.63-.46-1.3-.41-2.01.04-.56.2-1.1.47-1.6.2-.37.45-.71.75-1.01.37-.38.8-.68,1.28-.9.56-.26,1.14-.44,1.75-.52.3-.04.61-.07.92-.05.01,0,.03.01.04.03,0,.01,0,.03-.02.04-.01,0-.03.01-.05.02-.31.08-.62.19-.91.33-.45.22-.85.52-1.19.89-.49.54-.8,1.17-.88,1.89-.07.64.02,1.26.29,1.84.27.58.65,1.07,1.17,1.45.52.37,1.06.72,1.62,1.02.36.2.71.41,1.05.64.37.25.73.51,1.1.76.12.09.23.18.35.28.05.04.08.09.09.15,0,.05.02.1.03.16.07.66.1,1.33.05,1.99-.06.94-.25,1.85-.56,2.74-.06.17-.13.34-.2.51,0,.02-.03.03-.06.05Z"/>
    <path class="uuid-7e56567a-b8a9-49b8-b585-63efee53edd6" d="M12.76,30.79s-.04.04-.06.06c-.29.16-.57.34-.82.56-.01.01-.03.02-.04.03-.02.01-.08.01-.1,0-.01-.01-.03-.02-.04-.03-.37-.35-.64-.76-.77-1.26-.09-.35-.09-.71,0-1.06.14-.5.43-.87.85-1.16.31-.21.65-.33,1.01-.42.38-.09.76-.1,1.15-.05.25.03.5.1.73.19.34.12.66.28.97.46.23.13.45.27.67.41.45.28.93.52,1.43.7.39.14.79.24,1.2.28.59.06,1.17.02,1.73-.21.29-.12.56-.28.81-.48.22-.19.42-.39.59-.63.31-.43.54-.9.7-1.4.21-.64.27-1.29.19-1.94-.14-1.16-.66-2.12-1.6-2.84-.2-.15-.42-.29-.65-.4-.16-.08-.33-.16-.49-.24,0,0,0-.02,0-.02.02,0,.03-.01.05-.01.27.02.54.07.8.14.64.17,1.23.45,1.75.87.24.19.46.41.65.64.37.44.66.92.85,1.47.29.81.4,1.64.32,2.5-.03.36-.11.71-.22,1.05-.07.2-.15.39-.23.58-.31.69-.78,1.24-1.38,1.68-.58.43-1.23.7-1.93.83-.34.06-.68.08-1.02.07-.2,0-.38-.05-.55-.15-.09-.05-.18-.1-.28-.15-.61-.32-1.25-.54-1.92-.66-.32-.06-.64-.1-.96-.1-.03,0-.07,0-.1,0-.15,0-.29-.05-.42-.13-.31-.18-.62-.35-.94-.53-.1-.05-.2-.1-.31-.14-.14-.06-.3-.1-.45-.12-.21-.03-.42,0-.62.06-.46.17-.7.58-.64,1.08.02.16.07.32.11.51Z"/>
    <path class="uuid-7e56567a-b8a9-49b8-b585-63efee53edd6" d="M48.46,21.28s-.04.06-.06.07c-.12.06-.24.11-.36.17-.36.18-.7.39-1.01.65-.69.6-1.13,1.35-1.3,2.25-.09.48-.09.96-.05,1.44.02.23.05.47.11.7.07.33.2.63.34.93.13.26.27.51.45.74.45.58,1.03.96,1.73,1.16.26.07.53.11.8.12.67.02,1.3-.1,1.91-.37.55-.24,1.09-.51,1.6-.83.25-.16.51-.31.77-.44.39-.2.81-.34,1.24-.39.47-.06.94-.05,1.4.08.37.11.7.27.99.52.33.28.56.62.66,1.04.08.33.07.66-.02.99-.13.52-.41.96-.8,1.33-.03.03-.09.04-.12,0-.24-.23-.52-.41-.81-.58-.06-.04-.08-.09-.06-.16,0-.03.02-.05.02-.07.01-.04.03-.08.04-.13.08-.3.04-.59-.11-.86-.17-.31-.43-.47-.78-.5-.21-.02-.42.02-.62.08-.28.08-.54.21-.79.35-.18.1-.35.2-.52.31-.05.03-.1.06-.16.1-.06.04-.13.05-.2.06-.2,0-.4.02-.6.03-.46.02-.9.12-1.34.25-.5.15-.97.35-1.43.59-.09.05-.19.1-.28.15-.12.07-.24.1-.37.1-.22,0-.44,0-.65-.03-.56-.07-1.09-.22-1.6-.47-.66-.32-1.23-.77-1.67-1.36-.34-.45-.57-.96-.7-1.51-.14-.58-.19-1.17-.15-1.77.04-.51.13-1,.3-1.49.38-1.07,1.05-1.92,2.02-2.54.47-.3.98-.49,1.53-.6.2-.04.39-.07.61-.08Z"/>
    <path class="uuid-7e56567a-b8a9-49b8-b585-63efee53edd6" d="M66.37,16.29s.03.03.05.06c.05.07.09.15.14.22.28.47.57.94.85,1.42.2.34.4.67.6,1.01.19.33.33.68.39,1.05.12.71,0,1.37-.4,1.98-.21.31-.45.58-.75.8-.45.35-.95.62-1.51.76-.83.2-1.59.05-2.28-.46-.38-.28-.68-.63-.93-1.02-.13-.21-.26-.43-.39-.65-.36-.61-.73-1.21-1.09-1.82-.05-.09-.12-.17-.19-.25-.42-.48-.85-.95-1.27-1.43-.11-.12-.22-.25-.33-.38-.08-.1-.08-.11.03-.21.01-.01.03-.02.05-.03.02.01.05.02.06.04.05.06.1.12.16.17.07.08.15.15.24.2.11.07.24.06.34-.02.04-.03.07-.07.1-.12.04-.06.07-.12.1-.18.13-.26.26-.51.39-.77.03-.06.06-.13.08-.18-.01-.03-.02-.05-.03-.06-.38-.43-.76-.87-1.14-1.3-.03-.03-.06-.06-.08-.08-.05-.02-.08,0-.12,0-.3.11-.61.22-.91.33-.13.04-.24.11-.32.21-.07.08-.08.17-.05.27.02.05.04.1.07.14.05.07.1.14.15.22.02.03.05.05.06.09,0,.02,0,.05-.01.07-.01.02-.04.04-.06.05-.06.05-.09.05-.13,0-.08-.09-.16-.18-.25-.27-.28-.31-.56-.63-.83-.94-.02-.03-.05-.05-.06-.08,0-.01-.02-.04-.01-.05.03-.06.07-.1.13-.12.01,0,.04,0,.05,0,.04.03.08.07.12.1.09.08.2.11.31.11.1,0,.19,0,.28-.04.12-.04.25-.08.37-.12,1.45-.52,2.89-1.03,4.34-1.55.35-.12.69-.25,1.03-.37.09-.03.12,0,.18.06.04.04.04.09.01.14-.21.41-.41.83-.62,1.24-.02.05-.05.09-.07.14-.29.59-.58,1.17-.87,1.76-.38.77-.76,1.53-1.15,2.3-.04.09-.08.17-.1.27-.03.12,0,.23.05.33.04.08.09.17.14.25.04.07.1.12.16.17.13.09.27.11.42.05.07-.03.14-.07.21-.11.45-.26.9-.53,1.36-.79.84-.49,1.69-.99,2.53-1.48.04-.02.08-.04.11-.07.04-.02.07-.05.11-.07.18-.14.22-.31.14-.54-.03-.07-.07-.14-.11-.21-.02-.04-.04-.08-.06-.12,0-.01,0-.04.01-.05.04-.04.09-.08.17-.09ZM67.14,18.37c-.11.06-.21.12-.31.17-.47.28-.95.56-1.42.83-.81.48-1.63.95-2.44,1.43-.07.04-.13.08-.2.13-.15.1-.2.24-.16.41.01.06.03.12.06.17.07.15.16.29.26.42.32.41.74.59,1.26.55.33-.03.65-.11.96-.24.67-.29,1.29-.65,1.86-1.12.2-.16.37-.34.51-.56.22-.34.28-.71.2-1.1-.06-.28-.3-.8-.58-1.1ZM61.06,16.05s.04-.06.06-.09c.07-.14.14-.28.21-.42.15-.31.31-.63.46-.94.06-.13.12-.25.18-.38,0-.01,0-.03-.01-.05,0,0-.02-.01-.02,0-.04,0-.09.02-.13.03-.43.16-.87.32-1.3.47-.14.05-.28.1-.42.15-.03.01-.06.02-.07.07.05.09.13.16.2.24.07.08.14.16.21.24.07.08.14.16.21.24.07.08.14.16.21.23.07.07.12.17.23.22Z"/>
    <path class="uuid-7e56567a-b8a9-49b8-b585-63efee53edd6" d="M42.93.87c.04.19.07.37.11.55.09.51.18,1.01.27,1.52.16.88.32,1.75.48,2.63.08.46.17.91.26,1.36.01.08.04.15.07.23.05.12.12.21.24.26.06.03.1.06.15.1.15.11.32.13.5.08.09-.02.16-.08.2-.16.05-.08.09-.17.13-.26.17-.42.34-.84.51-1.26.37-.91.73-1.81,1.1-2.72.03-.07.06-.14.09-.22.03-.07.05-.15.07-.22.04-.14,0-.26-.1-.36-.07-.07-.15-.12-.24-.16-.08-.03-.17-.05-.23-.11-.02-.07.02-.12.05-.17.01-.02.05-.03.07-.02.04,0,.08.03.12.04.8.32,1.61.63,2.41.95.04.02.08.03.12.05.1.04.09.07.05.17,0,.02-.01.04-.03.05-.02.01-.05.03-.07.03-.07-.02-.13-.04-.2-.07-.11-.04-.22-.05-.33-.04-.11,0-.2.06-.27.15-.06.08-.1.16-.13.25-.19.49-.39.97-.59,1.46-.35.87-.7,1.73-1.05,2.6-.02.06-.05.11-.07.17,0,.02-.02.05-.02.08-.05.21,0,.33.2.43.11.06.22.11.33.15.2.09.41.16.62.19.3.05.59.03.88-.06.23-.07.42-.21.59-.37.19-.18.35-.39.5-.6.04-.05.07-.1.1-.15.06-.09.08-.09.2-.05.02,0,.03.02.04.03.01.01.02.03.02.05,0,.02-.02.05-.03.07-.34.64-.67,1.28-1.01,1.93-.02.03-.03.06-.05.09-.02.02-.05.03-.07.02-.16-.06-.31-.12-.46-.18-1.33-.52-2.66-1.05-4-1.57-.03-.01-.07-.02-.1-.04-.17-.11-.37-.14-.57-.18-.68-.15-1.37-.29-2.05-.44-.03,0-.07-.02-.1-.04-.01,0-.03-.03-.03-.04,0-.05.01-.1.04-.15,0-.01.03-.02.05-.02.06,0,.12.02.18.03.11.01.22.03.34.04.22.01.33-.14.33-.32,0-.06,0-.12-.01-.18-.05-.33-.11-.65-.17-.98,0-.03-.01-.05-.02-.08,0-.06-.05-.09-.11-.1-.08-.02-.15-.03-.23-.05-.49-.11-.99-.21-1.48-.32-.03,0-.05,0-.09,0-.03.03-.06.06-.08.1-.17.25-.33.49-.5.74-.05.07-.09.15-.12.23-.02.04-.03.08-.03.13-.02.14.03.24.15.31.08.04.18.08.26.11.07.03.15.03.22.09,0,.04,0,.08-.01.13,0,.05-.05.08-.09.07-.07-.01-.14-.02-.21-.04-.49-.1-.97-.21-1.46-.32-.02,0-.04,0-.05-.02-.02-.02-.04-.04-.04-.06,0-.05.02-.1.03-.15.03,0,.06-.01.08-.01.05,0,.1,0,.16,0,.12,0,.22-.03.31-.11.05-.04.11-.09.15-.14.08-.09.15-.19.22-.29.27-.39.53-.78.79-1.17.46-.69.92-1.38,1.38-2.07.34-.51.68-1.01,1.02-1.52.04-.06.09-.08.16-.06.03,0,.05.01.1.03ZM42.18,4.85s.06,0,.07,0c.02,0,.05-.03.05-.05,0-.02,0-.04,0-.05-.1-.54-.21-1.08-.31-1.62-.02-.1-.04-.2-.07-.31,0,0-.03-.02-.04-.01-.02.01-.04.03-.06.05-.35.52-.7,1.05-1.04,1.57,0,.01-.02.03-.02.05,0,.01,0,.04.02.04.02.01.05.03.07.03.26.06.53.11.79.17.19.04.38.08.54.12Z"/>
    <path class="uuid-7e56567a-b8a9-49b8-b585-63efee53edd6" d="M4.17,15.6c.06.11.12.21.19.31.31.49.63.99.94,1.48.56.89,1.12,1.77,1.68,2.66.09.15.19.29.28.44.02.04.04.08.06.11,0,.07-.04.11-.07.15-.02.03-.05.04-.09.04-.05,0-.1-.01-.16-.02-1.01-.22-2.01-.43-3.02-.65-.89-.19-1.78-.38-2.66-.57-.02,0-.05,0-.08,0,0,.04.03.06.06.08.14.1.29.2.43.3.64.44,1.29.87,1.93,1.3.51.34,1.01.68,1.52,1.03.07.05.15.09.23.12.18.07.33.03.46-.1.06-.05.1-.12.15-.18.03-.04.06-.08.1-.12.02-.02.05-.03.07-.01.05.03.11.05.13.12-.07.14-.17.26-.26.39-.25.36-.5.72-.75,1.08-.03.04-.06.09-.09.13-.02.03-.06.04-.09.02-.03-.03-.07-.05-.1-.08,0,0-.01-.03,0-.05,0-.02.02-.05.03-.07.04-.06.08-.12.11-.18.05-.08.07-.16.08-.25.01-.13-.02-.24-.12-.33-.05-.05-.1-.09-.16-.13-.7-.48-1.4-.95-2.11-1.42-.47-.32-.94-.64-1.41-.95-.12-.08-.25-.17-.37-.25-.07-.05-.15-.09-.24-.11-.07-.02-.14-.01-.21.01-.11.04-.2.11-.27.2-.05.07-.1.14-.16.21-.02.03-.06.03-.09.01-.03-.02-.06-.04-.09-.06-.03-.02-.03-.06-.01-.09.02-.03.04-.06.06-.09.38-.55.76-1.11,1.15-1.66.04-.06.1-.12.15-.19.06,0,.12,0,.18.01.53.11,1.06.22,1.59.33.61.13,1.23.26,1.84.39.23.05.46.1.69.14.07.01.14.02.21.02,0,0,.03-.03.02-.04-.01-.03-.03-.06-.04-.09-.29-.47-.58-.93-.88-1.4-.2-.31-.39-.62-.59-.93-.28-.45-.57-.9-.85-1.36-.03-.04-.05-.09-.07-.14.11-.18.23-.34.34-.51.28-.4.56-.8.84-1.21.02-.04.05-.07.08-.1.01-.01.03-.02.05-.02.06,0,.11.05.14.1,0,.01,0,.04,0,.05-.03.05-.07.1-.1.16-.03.05-.07.1-.09.16-.09.25-.04.4.13.54.04.03.08.06.13.09.88.59,1.75,1.18,2.63,1.77.39.26.78.53,1.17.79.07.05.15.09.23.13.18.08.35.05.5-.1.06-.06.11-.14.16-.21.03-.03.06-.07.09-.1,0,0,.04-.01.05,0,.05.03.11.06.14.12-.03.04-.05.09-.08.13-.42.61-.85,1.22-1.27,1.83-.1.14-.2.29-.3.43-.03.04-.07.04-.11.01-.04-.03-.09-.05-.11-.11.05-.08.11-.16.16-.24.06-.1.1-.2.09-.32,0-.08-.03-.15-.08-.22-.05-.06-.11-.12-.17-.16-.13-.09-.26-.18-.39-.27-1.06-.71-2.11-1.43-3.17-2.14-.09-.06-.19-.13-.29-.18-.02,0-.05,0-.07,0,0,0,.01-.01.01-.02,0,0,0-.01,0-.02,0,0,0,.02,0,.03Z"/>
    <path class="uuid-7e56567a-b8a9-49b8-b585-63efee53edd6" d="M44.63,29.7c.12.12.22.23.32.34.19.19.4.37.62.53.06.04.11.08.17.13.02.01.02.03,0,.04,0,0-.01.01-.02.01-.03,0-.05,0-.08,0-.09,0-.17,0-.26,0-7.38,0-14.75,0-22.13,0-.07,0-.14,0-.21,0-.05,0-.12.03-.13-.04-.01-.04.05-.06.08-.09.32-.23.61-.49.87-.79.04-.05.09-.09.14-.13.02,0,.04-.01.07-.01,6.82,0,13.64,0,20.45,0,.03,0,.07,0,.11,0Z"/>
    <path class="uuid-7e56567a-b8a9-49b8-b585-63efee53edd6" d="M34.3,29.48c-3.26,0-6.52,0-9.78,0-.1,0-.19,0-.29-.01,0,0-.02-.03-.02-.04,0-.02,0-.04.01-.05.19-.29.35-.59.48-.9.02-.04.05-.07.1-.07.07,0,.14,0,.21,0,6.2,0,12.39,0,18.59,0,.07,0,.14,0,.21,0,.06,0,.1.03.12.08.08.17.16.35.24.52.06.12.13.23.2.34.02.03.04.06.03.09-.02.05-.07.04-.11.04-.03,0-.05,0-.08,0-.07,0-.14,0-.21,0-3.23,0-6.47,0-9.7,0Z"/>
    <path class="uuid-7e56567a-b8a9-49b8-b585-63efee53edd6" d="M24.84,28.16c0-.18.09-.34.12-.51.03-.17.07-.34.1-.49.03-.05.07-.05.1-.05.08,0,.16,0,.24,0,5.94,0,11.88,0,17.82,0,.1,0,.19,0,.29,0,.03,0,.07.03.08.06,0,.03.02.05.02.08.03.27.09.53.17.79,0,.02,0,.05,0,.08,0,.02-.02.05-.05.05-.03,0-.05,0-.08,0-.07,0-.14,0-.21,0-6.1,0-12.2,0-18.3,0-.1,0-.21.01-.32-.02Z"/>
    <path class="uuid-7e56567a-b8a9-49b8-b585-63efee53edd6" d="M52.33,11.38c.02-.08.07-.13.13-.17.09.02.14.09.21.14.07.05.15.09.23.12.14.04.26.02.37-.06.08-.06.14-.13.2-.2.16-.2.33-.41.49-.61.64-.8,1.27-1.6,1.91-2.4.15-.19.31-.38.46-.57.05-.07.1-.14.14-.22.06-.11.05-.22,0-.33-.05-.09-.1-.16-.18-.23-.05-.04-.11-.09-.16-.13-.04-.04-.04-.08,0-.14.02-.02.03-.04.05-.06.02-.02.05-.03.07,0,.03.02.06.04.09.06.48.37.95.74,1.43,1.11.28.21.55.43.83.64.2.16.39.33.56.52.37.41.62.89.7,1.44.06.38.04.75-.06,1.12-.12.46-.34.88-.63,1.26-.2.27-.44.52-.7.74-.4.32-.85.52-1.35.6-.25.04-.51.04-.76,0-.45-.07-.88-.23-1.27-.47-.13-.08-.26-.17-.39-.27-.58-.45-1.16-.9-1.74-1.35-.18-.14-.36-.28-.54-.42-.04-.03-.08-.07-.11-.1ZM57.71,8.18s-.04.03-.06.05c-.08.1-.17.2-.25.3-.46.57-.91,1.15-1.37,1.72-.22.28-.45.56-.67.84-.23.29-.46.57-.68.86-.05.07-.1.14-.15.22-.08.12-.06.25.01.37.04.06.08.11.13.16.16.16.35.29.56.39.35.16.71.18,1.07.04.17-.07.33-.15.49-.25.17-.11.32-.24.47-.38.53-.51.98-1.09,1.34-1.73.12-.21.21-.44.26-.68.09-.45-.02-.85-.3-1.2-.21-.27-.48-.48-.77-.67-.02-.01-.05-.02-.07-.03Z"/>
    <path class="uuid-7e56567a-b8a9-49b8-b585-63efee53edd6" d="M16.2,24.39c.01-.5.13-.95.39-1.38.38-.65.93-1.1,1.63-1.37.25-.1.51-.13.77-.1,1.14.12,2.08.63,2.79,1.53.08.1.15.21.22.33.19.33.33.67.42,1.04,0,.02,0,.05,0,.08,0,0,0,.02-.01.02,0,0-.02,0-.03,0-.07-.06-.14-.13-.21-.2-.17-.17-.35-.31-.56-.44-.37-.22-.77-.32-1.2-.3-1,.05-1.96.76-2.21,1.88-.08.36-.08.73.01,1.09.03.13.06.25.09.38,0,.02-.02.06-.05.05-.02,0-.04,0-.05,0-.11-.03-.22-.06-.32-.11-.55-.24-.99-.62-1.3-1.13-.26-.42-.38-.88-.39-1.36Z"/>
    <path class="uuid-7e56567a-b8a9-49b8-b585-63efee53edd6" d="M52.42,24.39c-.01.65-.23,1.22-.65,1.72-.33.39-.73.67-1.22.84-.06.02-.13.03-.2.04-.02,0-.05-.03-.05-.05.02-.08.03-.15.06-.23.1-.33.13-.67.09-1.01-.03-.28-.11-.55-.24-.8-.36-.68-.92-1.11-1.67-1.27-.6-.13-1.16-.01-1.67.34-.18.12-.34.27-.5.42-.04.04-.07.08-.11.11,0,0-.03,0-.05,0,0,0,0-.01,0-.02,0-.02,0-.04,0-.05.22-.86.66-1.57,1.38-2.1.43-.32.89-.55,1.4-.68.23-.06.46-.1.7-.12.22-.02.44,0,.65.08.82.29,1.43.82,1.82,1.61.18.37.27.76.28,1.17Z"/>
    <path class="uuid-7e56567a-b8a9-49b8-b585-63efee53edd6" d="M18.43,7.75s-.06-.07-.08-.1c-.17-.28-.34-.57-.51-.85-.33-.55-.67-1.11-1-1.66-.04-.07-.08-.13-.13-.19-.13-.15-.28-.2-.5-.13-.05.02-.1.04-.14.06-.06.03-.12.07-.18.1-.04.02-.08,0-.11-.04-.02-.03-.03-.06-.05-.09,0-.01,0-.04,0-.05.04-.03.08-.07.13-.09.4-.23.8-.47,1.2-.7.12-.07.24-.14.36-.21.08.03.11.1.13.16,0,.01,0,.04-.02.04-.06.04-.13.09-.2.13-.08.05-.15.11-.21.2-.07.11-.1.23-.05.35.03.07.06.15.1.21.08.14.16.27.24.41.38.63.76,1.26,1.13,1.89.45.74.89,1.48,1.34,2.22.04.07.08.14.12.2.02.03,0,.07-.03.09-.03.02-.06.04-.09.05-.03.01-.07.02-.1,0-.07-.02-.13-.04-.2-.07-1.15-.43-2.29-.85-3.44-1.28-.8-.3-1.6-.59-2.41-.89-.05-.02-.1-.03-.15-.05,0,0-.02,0-.02,0-.02,0-.02.02-.01.04.02.04.04.08.06.12.11.19.23.37.34.56.28.46.56.93.83,1.39.3.49.59.99.89,1.48.04.06.07.12.12.17.11.14.26.19.44.16.07-.01.13-.04.2-.07.06-.03.12-.07.18-.1.05-.03.09-.02.13.04.01.02.02.05.04.07.01.03,0,.05-.01.07-.04.03-.09.06-.13.09-.47.28-.95.56-1.42.83-.04.02-.08.04-.12.05-.01,0-.04,0-.05-.01-.04-.03-.07-.08-.08-.13,0-.02,0-.04.02-.05.02-.02.04-.03.06-.05.06-.04.12-.07.18-.11.08-.05.14-.13.19-.21.05-.09.06-.18.03-.28-.03-.09-.07-.18-.12-.26-.11-.19-.22-.38-.33-.56-.33-.55-.66-1.09-.98-1.64-.33-.55-.67-1.11-1-1.66-.05-.09-.12-.14-.22-.18-.26-.09-.51-.11-.77,0-.02.01-.05.02-.07.02-.03,0-.05,0-.07-.03-.01-.02-.03-.04-.04-.07-.04-.06-.03-.1.02-.13.01,0,.03-.02.05-.03.53-.31,1.05-.62,1.58-.93,0,0,.02,0,.02-.01.05-.04.11-.04.17-.02.33.13.67.25,1.01.37,1.14.42,2.28.84,3.41,1.26.07.02.13.05.2.07.04.01.09,0,.12-.02,0,0-.01,0-.02.01,0,0,.01,0,.02-.01Z"/>
    <path class="uuid-7e56567a-b8a9-49b8-b585-63efee53edd6" d="M34.43,3.1c.02-.53.05-1.07.07-1.6,0-.17.02-.35.03-.52,0-.1.01-.19,0-.29-.02-.23-.14-.37-.37-.42-.07-.02-.14-.02-.21-.03-.05,0-.1-.01-.16-.02-.01,0-.03-.02-.04-.03-.02-.05-.01-.1,0-.15,0-.01.02-.03.04-.03.03,0,.07,0,.1,0,.31.01.63.03.94.04.04,0,.09,0,.13,0,.54.02,1.08.05,1.62.07.31.01.63.03.94.1.26.05.5.15.73.27.13.07.25.16.35.27.19.19.32.42.36.69.07.44,0,.85-.24,1.23-.11.18-.27.32-.45.44-.23.15-.48.24-.75.3-.26.06-.52.07-.78.07-.26,0-.52,0-.78-.06-.03,0-.07,0-.1-.01-.03,0-.07.03-.08.05,0,.02,0,.03,0,.05-.01.25-.03.51-.04.76-.02.32-.03.65-.05.97,0,.1,0,.19-.01.29,0,.05,0,.11,0,.16.03.22.17.36.4.39.09.01.17.01.26.02.06,0,.12.01.18.03.01,0,.03.02.04.03.03.05.02.1,0,.15,0,.01-.02.03-.04.03-.03,0-.07,0-.1,0-.25-.01-.51-.02-.76-.03-.06,0-.12,0-.18-.01-.54-.02-1.08-.05-1.62-.07-.1,0-.21,0-.31-.02-.09,0-.11-.05-.11-.14,0,0,0-.02,0-.03,0-.04.03-.07.07-.07.09,0,.17,0,.26,0,.09,0,.17-.02.25-.06.13-.06.2-.16.23-.3,0-.04.01-.09.02-.13,0-.11.02-.23.02-.34.03-.51.05-1.01.07-1.52,0-.18.02-.37.03-.55ZM35.89,1.8s0,0,0,0c-.02.38-.03.75-.05,1.13,0,.05.04.1.09.11.09.02.19.03.28.05.19.03.38,0,.57-.05.21-.06.38-.18.5-.36.07-.1.12-.21.16-.33.07-.24.1-.48.1-.72,0-.15-.01-.3-.06-.44-.1-.31-.28-.53-.62-.6-.28-.06-.55-.06-.83-.08-.03,0-.07.04-.07.07-.01.17-.03.33-.03.5-.01.24-.02.49-.03.73Z"/>
    <path class="uuid-7e56567a-b8a9-49b8-b585-63efee53edd6" d="M6.14,12.27s-.06-.05-.09-.09c-.05-.05-.05-.09,0-.13.14-.13.28-.26.43-.39.27-.24.55-.49.82-.73.24-.22.48-.43.72-.65.06-.05.12-.1.18-.15.01,0,.04,0,.05,0,.04.03.07.07.11.11,0,0,0,.04,0,.05-.07.07-.14.14-.2.2-.08.07-.13.16-.16.27-.02.07-.02.14,0,.21.03.09.08.16.14.22.14.16.28.31.42.47.23.25.46.5.69.75.45.5.91.99,1.36,1.49.08.08.16.16.24.24.12.11.25.19.4.25.26.11.53.11.79.01,0,0,.02,0,.02-.01.38-.13.91-.59,1.05-1.16.08-.31.07-.6-.06-.9-.06-.14-.14-.28-.24-.4-.14-.17-.28-.33-.43-.49-.23-.26-.47-.51-.71-.77-.41-.45-.83-.9-1.24-1.35-.06-.06-.12-.13-.19-.18-.14-.12-.3-.13-.47-.05-.08.04-.15.09-.22.15-.05.05-.09.1-.17.12-.06-.02-.1-.07-.13-.12,0-.01,0-.04,0-.05.03-.03.05-.07.09-.1.27-.25.55-.49.82-.73.15-.13.3-.27.45-.4.03-.02.05-.05.08-.06.02,0,.06,0,.07,0,.04.03.07.07.11.11-.02.03-.02.05-.04.07-.04.04-.09.08-.14.12-.05.05-.1.1-.13.16-.1.16-.11.33,0,.49.04.06.09.11.13.16.47.52.94,1.03,1.42,1.55.25.27.5.54.75.81.17.19.33.38.46.6.21.35.31.72.24,1.13-.01.08-.02.16-.03.23-.05.23-.13.45-.27.65-.32.47-.71.86-1.19,1.17-.23.15-.48.26-.75.31-.31.05-.61.04-.91-.06-.14-.05-.27-.11-.4-.2-.24-.17-.47-.36-.67-.58-.51-.56-1.03-1.12-1.54-1.68-.22-.24-.44-.48-.66-.71-.06-.06-.12-.13-.19-.18-.12-.1-.27-.12-.42-.07-.08.03-.16.08-.22.13-.07.06-.12.13-.21.16Z"/>
    <path class="uuid-7e56567a-b8a9-49b8-b585-63efee53edd6" d="M49.17,70.26c0-.05,0-.1,0-.14,0-.44,0-.87,0-1.31,0-.09,0-.17-.03-.26-.04-.13-.11-.21-.24-.26-.07-.03-.15-.04-.23-.05-.07,0-.14,0-.21-.01-.03,0-.06-.03-.06-.07,0-.03,0-.05,0-.08,0-.01.02-.03.03-.04.03,0,.07-.02.1-.02.1,0,.21,0,.31,0,.63,0,1.26,0,1.89,0,.07,0,.14,0,.21,0,.03,0,.05,0,.08.01.03,0,.04.04.04.06,0,.04,0,.09-.04.12-.02.01-.05.01-.07.02-.06,0-.12,0-.18.02-.23.05-.33.16-.35.39,0,.08,0,.16,0,.24,0,.39,0,.79,0,1.18,0,.06,0,.12,0,.18,0,.02-.02.05-.04.07-.03.02-.06.04-.09.06-.39.2-.8.34-1.24.4-.29.04-.57.05-.86.04-.4-.01-.78-.1-1.14-.27-.39-.19-.72-.46-.97-.82-.22-.31-.37-.66-.45-1.03-.12-.58-.12-1.16.04-1.74.09-.33.24-.64.44-.91.39-.53.91-.86,1.55-1,.36-.08.73-.08,1.1-.05.24.02.46.08.67.2.08.05.17.08.26.12.07.03.15.04.23.04.08,0,.13-.03.18-.09.04-.06.07-.12.09-.19.03-.09.09-.11.18-.08.01,0,.03.02.04.03,0,.03.02.07.02.1,0,.17,0,.33,0,.5,0,.33,0,.66,0,1,0,.05,0,.1-.01.16,0,.01-.02.03-.03.03-.03,0-.07.01-.1,0-.03,0-.07-.02-.08-.05-.04-.1-.08-.19-.12-.29-.12-.27-.28-.52-.5-.73-.44-.4-.95-.49-1.51-.33-.29.09-.5.28-.66.53-.15.23-.24.48-.3.75-.1.4-.13.81-.14,1.22,0,.29.01.58.04.86.03.26.08.52.17.76.03.09.07.18.12.26.18.34.46.55.83.61.32.06.64.04.95-.1.02,0,.03-.02.05-.03.01,0,.03-.02.06-.04Z"/>
    <path class="uuid-7e56567a-b8a9-49b8-b585-63efee53edd6" d="M27.73.45s.05-.02.06-.03c.15-.05.16-.04.2.11.15.59.29,1.19.44,1.78,0,.03.01.07.01.1,0,.01-.01.03-.03.04-.05.03-.1.04-.15.03-.02,0-.05-.02-.06-.04-.03-.03-.04-.08-.06-.11-.09-.15-.18-.3-.3-.43-.25-.28-.55-.49-.91-.59-.29-.08-.59-.09-.88,0-.61.17-1.01.57-1.19,1.18-.09.31-.13.63-.1.96.02.34.07.68.16,1.01.07.25.14.5.24.75.11.27.25.52.42.75.14.18.3.34.49.47.4.27.83.35,1.3.27.19-.03.37-.09.55-.18.22-.11.41-.27.56-.46.15-.19.27-.39.36-.61.06-.15.11-.29.17-.44.02-.05.06-.08.13-.06.03,0,.05.01.08.02.12.04.12.06.1.17-.07.3-.18.58-.32.86-.19.38-.48.66-.84.88-.37.24-.78.38-1.22.43-.16.02-.31.04-.47.04-1.01-.04-1.84-.44-2.45-1.25-.3-.39-.49-.83-.6-1.3-.07-.31-.12-.62-.11-.93.02-.53.15-1.04.41-1.5.27-.48.67-.85,1.15-1.12.36-.2.74-.31,1.14-.38.29-.05.58-.03.86.01.15.02.29.04.44.06.05,0,.11,0,.16,0,.13-.02.22-.1.25-.24.02-.08.03-.15.04-.24Z"/>
    <path class="uuid-7e56567a-b8a9-49b8-b585-63efee53edd6" d="M50.18,34.13c0-.55.11-1.03.34-1.47.17-.32.39-.6.66-.84.59-.52,1.27-.86,2.04-1,.87-.16,1.7-.02,2.48.4.3.16.58.36.83.6.36.34.64.74.8,1.21,0,.02.01.05.02.08,0,0,0,.02-.01.02,0,0-.02,0-.02,0-.04-.02-.07-.04-.11-.07-.45-.37-.95-.62-1.51-.75-.31-.07-.62-.11-.93-.11-.92,0-1.75.28-2.49.83-.32.24-.59.52-.79.87-.16.27-.27.56-.32.88-.05.32-.03.64.06.96.07.24.17.48.3.7.06.1.1.2.16.3,0,0,0,.02-.01.02,0,0-.02,0-.02,0-.02,0-.03-.01-.04-.02-.36-.3-.67-.64-.93-1.03-.29-.44-.5-1-.48-1.58Z"/>
    <path class="uuid-7e56567a-b8a9-49b8-b585-63efee53edd6" d="M18.41,34.16c.01.34-.08.75-.26,1.13-.14.29-.3.55-.51.79-.19.23-.4.44-.63.63-.02.02-.05.02-.07.03,0,0-.01-.01-.01-.02,0-.03.01-.05.02-.07.04-.08.09-.15.13-.23.16-.28.28-.56.33-.88.12-.64,0-1.23-.37-1.77-.28-.41-.64-.73-1.07-.99-.5-.3-1.05-.49-1.62-.56-.94-.11-1.83.07-2.62.6-.14.09-.26.2-.4.3-.01,0-.03,0-.05.01,0-.02-.02-.05-.02-.07,0-.03.01-.05.02-.07.14-.39.35-.74.65-1.04.6-.61,1.31-1.01,2.16-1.15.72-.12,1.41-.02,2.08.25.51.21.96.49,1.36.88.44.43.72.94.83,1.54.04.2.05.4.05.69Z"/>
    <path class="uuid-7e56567a-b8a9-49b8-b585-63efee53edd6" d="M39.57,65.12c.06.07.11.13.17.2.46.57.92,1.14,1.39,1.71.36.44.72.88,1.08,1.32.07.08.14.16.21.24.01.02.03.02.04,0,.01-.01.02-.03.02-.04,0-.03,0-.07,0-.1,0-.86,0-1.71,0-2.57,0-.07,0-.14-.01-.21-.02-.14-.1-.24-.23-.29-.08-.03-.17-.05-.25-.05-.06,0-.12,0-.18-.01-.03,0-.05-.02-.05-.05,0-.03,0-.07,0-.1,0-.01.02-.03.03-.03.02,0,.05-.01.08-.01.53,0,1.07,0,1.6,0,.03,0,.05,0,.08.02,0,0,.02,0,.02.01.02.02.02.12,0,.15-.01.01-.03.02-.04.03-.06,0-.12,0-.18,0-.04,0-.09,0-.13.01-.21.05-.32.16-.34.37-.01.09-.01.17-.01.26,0,.83,0,1.66,0,2.49,0,.68,0,1.36,0,2.04,0,.06,0,.12,0,.18,0,.04,0,.09-.04.12-.06.04-.18.01-.22-.04-.14-.17-.28-.34-.42-.51-.63-.78-1.27-1.56-1.9-2.34-.42-.52-.85-1.04-1.27-1.56-.03-.04-.07-.08-.11-.12,0,0-.01,0-.02,0-.02,0-.03.01-.04.03,0,.03,0,.05,0,.08,0,.06,0,.12,0,.18,0,1.1,0,2.2,0,3.3,0,.1,0,.19,0,.29.01.18.11.29.28.34.09.03.19.04.28.04.03,0,.07,0,.1.01.02,0,.04.03.04.06,0,.03,0,.05,0,.08,0,.02-.03.05-.05.06-.02.01-.05,0-.08,0-.52,0-1.03,0-1.55,0-.02,0-.03,0-.05,0-.06,0-.1-.03-.09-.13,0-.04.03-.07.06-.08.06,0,.12,0,.18,0,.09,0,.17-.02.25-.06.11-.05.18-.13.21-.25.02-.1.02-.21.02-.31,0-.36,0-.72,0-1.07,0-.9,0-1.8,0-2.7,0-.03,0-.07,0-.1.02-.16-.05-.29-.16-.4-.11-.11-.24-.2-.4-.24-.06-.01-.12-.03-.18-.05-.02,0-.03-.04-.04-.06,0-.02,0-.05,0-.08,0-.02.01-.05.04-.06.03,0,.07-.01.1-.01.54,0,1.08,0,1.63,0,.03,0,.07,0,.11.01Z"/>
    <path class="uuid-7e56567a-b8a9-49b8-b585-63efee53edd6" d="M13.81,65.1c.71,0,1.41,0,2.12,0,.08,0,.16,0,.23,0,.03,0,.05.03.06.05,0,.02.01.05.01.08,0,.44,0,.87,0,1.31,0,.03,0,.05-.01.08,0,.02-.03.04-.05.05-.02,0-.05,0-.08,0-.05,0-.08-.03-.09-.07-.02-.09-.04-.17-.06-.26-.02-.08-.05-.17-.08-.25-.04-.11-.11-.22-.19-.31-.13-.15-.29-.25-.49-.28-.12-.02-.24-.04-.36-.04-.43,0-.38-.06-.38.37,0,1.33,0,2.66,0,3.98,0,.12,0,.25.02.37.03.14.11.23.25.28.08.02.15.03.23.04.07,0,.14,0,.21,0,.01,0,.03.01.04.03.03.03.03.11,0,.15-.01.01-.03.02-.04.03-.03,0-.07,0-.1,0-.82,0-1.64,0-2.46,0-.03,0-.05,0-.08,0-.1,0-.12-.07-.1-.17,0-.01.02-.03.03-.03.06,0,.12-.01.18-.01.09,0,.17,0,.26-.04.15-.05.26-.15.27-.32.01-.1.02-.21.02-.31,0-.73,0-1.47,0-2.2,0-.61,0-1.22,0-1.83,0-.08,0-.16,0-.24,0-.05-.04-.09-.08-.09-.24,0-.47,0-.7.04-.13.03-.25.09-.35.18-.15.13-.25.29-.32.47-.05.13-.08.27-.1.41-.02.1-.04.11-.14.11-.05,0-.09-.03-.09-.07,0-.04,0-.09,0-.13,0-.38,0-.77,0-1.15,0-.04,0-.09,0-.13,0-.07.04-.09.1-.09.07,0,.14,0,.21,0,.7,0,1.4,0,2.1,0Z"/>
    <path class="uuid-7e56567a-b8a9-49b8-b585-63efee53edd6" d="M52.02,11.07s-.04.09-.07.13c-.02.03-.06.04-.09.02-.07-.04-.14-.07-.21-.11-.18-.1-.35-.2-.53-.29-.53-.3-1.07-.6-1.6-.89-.07-.04-.13-.08-.2-.13-.01,0-.02-.03-.01-.05.02-.04.04-.08.06-.11.02-.03.06-.04.09-.03.07.04.14.07.21.11.08.04.16.06.25.07.02,0,.03,0,.05,0,.12,0,.22-.05.3-.14.05-.07.1-.14.15-.22.21-.36.42-.73.62-1.09.49-.86.98-1.71,1.47-2.57.05-.09.1-.18.15-.27.03-.05.06-.11.08-.16.1-.22.04-.37-.11-.52-.05-.05-.13-.09-.19-.14-.06-.04-.13-.06-.17-.13.02-.04.04-.08.06-.11.03-.05.07-.06.11-.04.02,0,.03.02.05.03.81.45,1.62.9,2.43,1.35.02,0,.04.01.04.03.01.02.03.05.03.07,0,.05-.04.1-.08.13-.01,0-.04.02-.05.01-.07-.03-.14-.07-.21-.11-.1-.06-.21-.08-.33-.08-.11,0-.2.04-.28.12-.04.05-.08.09-.11.15-.06.1-.13.21-.19.32-.29.51-.58,1.02-.87,1.53-.4.7-.8,1.39-1.2,2.09-.07.11-.13.22-.17.35-.04.16,0,.3.11.41.06.05.13.09.19.14.06.04.15.06.19.15Z"/>
    <path class="uuid-7e56567a-b8a9-49b8-b585-63efee53edd6" d="M32.5.29s-.09.04-.13.04c-.09.01-.17.03-.26.04-.07.01-.13.05-.19.09-.08.06-.13.13-.16.23-.02.08-.03.15-.02.23.04.38.08.76.11,1.15.02.21.04.42.06.63.04.47.08.94.12,1.41.04.49.09.97.14,1.46,0,.03,0,.07.01.1.04.26.22.41.49.41.07,0,.14-.01.21-.02.03,0,.07,0,.1,0,0,0,.02,0,.02.01.03.05.04.11.03.18,0,.01-.02.03-.03.04-.01,0-.03.01-.05.01-.15.02-.3.03-.44.04-.17.02-.35.03-.52.05-.28.02-.56.05-.83.07-.29.03-.57.05-.86.08-.07,0-.14,0-.21,0-.01,0-.04-.01-.04-.03-.03-.06-.03-.12-.01-.18,0-.01.02-.03.04-.03.07,0,.14-.01.21-.02.13-.01.25-.06.36-.15.08-.07.13-.15.13-.25,0-.08,0-.16,0-.24-.02-.22-.04-.43-.06-.65-.03-.29-.06-.57-.09-.86-.02-.21-.04-.42-.06-.63-.02-.28-.05-.56-.07-.83-.03-.28-.05-.56-.08-.83-.02-.25-.05-.5-.07-.76,0-.08-.02-.16-.04-.23-.05-.17-.18-.26-.34-.29-.07-.01-.14-.01-.21-.01-.07,0-.14,0-.21,0-.03,0-.07-.03-.07-.06,0-.03,0-.05-.01-.08,0-.05.03-.09.07-.1.03,0,.05-.01.08-.01.47-.04.94-.08,1.41-.12.43-.04.87-.08,1.3-.12.03,0,.07,0,.1,0,.02,0,.05.03.05.05.01.05,0,.1.01.15Z"/>
    <path class="uuid-7e56567a-b8a9-49b8-b585-63efee53edd6" d="M18.58,3.39s.1-.05.16-.07c.81-.32,1.62-.65,2.43-.97.05-.02.1-.03.15-.05.03,0,.05,0,.07.03.03.05.07.1.04.18-.07.03-.15.06-.23.1-.11.04-.2.11-.27.21-.04.06-.06.12-.07.19,0,.11.02.21.06.31.1.25.2.5.31.75.06.15.13.31.19.46.27.67.55,1.34.82,2.01.14.34.28.68.42,1.02.02.04.03.08.05.12.01.02.02.05.04.07.14.24.33.28.56.22.06-.02.11-.04.17-.06.05-.02.1-.03.15-.05.08.05.1.12.09.21-.05.02-.11.05-.16.07-.82.33-1.64.65-2.45.98-.04.02-.08.03-.13.03-.01,0-.03-.01-.04-.02-.04-.05-.06-.1-.05-.18.05-.02.1-.05.16-.07.07-.03.15-.06.21-.11.2-.14.24-.3.19-.5-.02-.07-.04-.13-.07-.2-.22-.53-.44-1.07-.66-1.6-.07-.16-.13-.32-.2-.48-.26-.63-.51-1.26-.77-1.89-.04-.1-.08-.19-.12-.29-.01-.02-.02-.05-.03-.07-.12-.25-.32-.32-.59-.25-.09.02-.18.06-.27.1-.03.01-.07-.01-.09-.04-.02-.05-.05-.09-.04-.16Z"/>
    <path class="uuid-7e56567a-b8a9-49b8-b585-63efee53edd6" d="M55.76,69c-.07,0-.15,0-.23,0-.48,0-.96,0-1.44,0-.02,0-.03.01-.06.02-.08.19-.15.38-.23.57-.04.11-.08.21-.12.32-.04.09-.04.19-.04.28,0,.12.07.19.18.24.04.02.08.02.13.03.09.01.19.03.29.04.04,0,.07.03.08.06,0,.04,0,.09-.02.12-.01.01-.03.02-.04.02-.03,0-.05,0-.08,0-.46,0-.93,0-1.39,0-.03,0-.07,0-.1-.01-.02,0-.04-.03-.05-.06,0-.02,0-.05,0-.08,0-.03.02-.05.04-.06.06-.01.12-.03.18-.04.11-.02.19-.08.25-.17.05-.07.09-.15.13-.23.06-.13.11-.25.17-.38.3-.76.6-1.53.9-2.29.29-.75.59-1.49.88-2.24,0-.02.02-.05.03-.07.03-.08.08-.1.17-.08.02,0,.05.02.06.04.02.04.04.08.06.12.07.18.15.35.22.53.41.97.82,1.95,1.23,2.92.17.41.35.82.52,1.23.04.1.09.21.14.31.08.17.19.29.38.33.02,0,.04,0,.05.02.02.02.03.04.03.06,0,.02,0,.05,0,.08,0,.03-.02.05-.05.05-.04,0-.09,0-.13,0-.73,0-1.47,0-2.2,0-.03,0-.05,0-.08,0-.08,0-.11-.04-.1-.14,0-.03.02-.05.05-.06.06,0,.12-.01.18-.01.11,0,.21-.01.31-.04.15-.04.23-.17.2-.32-.01-.05-.02-.1-.04-.15-.12-.31-.25-.61-.38-.92,0-.02-.03-.04-.05-.07ZM54.9,68.63c.17,0,.33,0,.5,0,.05,0,.1,0,.16,0,.05,0,.08-.04.06-.08-.02-.05-.04-.1-.06-.15-.1-.24-.21-.48-.31-.72-.1-.22-.19-.45-.29-.67-.01-.03-.03-.06-.05-.09,0,0-.01,0-.02-.01-.02,0-.03,0-.04.02-.02.05-.04.09-.06.14-.16.42-.33.84-.49,1.26-.03.07-.05.15-.08.22,0,.03.02.07.05.07.04,0,.09,0,.13,0,.17,0,.33,0,.5,0Z"/>
    <path class="uuid-7e56567a-b8a9-49b8-b585-63efee53edd6" d="M33.96,69s-.07-.01-.11-.01c-.5,0-1,0-1.49,0-.03,0-.05,0-.08,0-.04,0-.07.03-.08.06-.04.1-.08.19-.12.29-.07.18-.14.36-.21.54-.03.09-.06.18-.05.28,0,.14.07.23.2.27.08.02.17.04.26.05.05,0,.1.01.16.02.02,0,.03.02.04.03.03.03.02.13,0,.15-.01.01-.03.02-.05.02-.03,0-.07,0-.1,0-.45,0-.91,0-1.36,0-.03,0-.07,0-.1-.01-.03,0-.04-.03-.05-.06,0-.02,0-.05,0-.08,0-.02.02-.05.04-.06.05-.02.1-.03.15-.04.13-.03.22-.1.29-.2.03-.05.07-.1.09-.16.04-.09.09-.19.12-.29.22-.56.44-1.12.66-1.68.37-.94.74-1.89,1.11-2.83.03-.08.07-.16.1-.24.03-.07.06-.08.15-.08.04,0,.07.02.08.05.02.05.05.09.07.14.19.46.39.92.58,1.38.37.89.74,1.77,1.12,2.66.11.27.22.53.34.8.02.05.04.1.06.14.07.16.18.28.36.32.02,0,.03.01.05.02.05.02.07.14.03.18-.01.01-.03.02-.04.02-.04,0-.09,0-.13,0-.73,0-1.45,0-2.18,0-.03,0-.07,0-.1,0-.07,0-.1-.04-.1-.13,0-.04.03-.07.06-.08.07,0,.14-.01.21-.01.11,0,.21-.02.31-.05.07-.02.12-.07.15-.13.03-.06.04-.12.02-.18-.01-.04-.02-.08-.04-.12-.12-.3-.24-.6-.36-.9-.02-.04-.04-.08-.06-.11ZM33.09,68.63h0c.14,0,.28,0,.42,0,.09,0,.17,0,.26,0,.02,0,.05-.04.04-.06,0-.02-.01-.05-.03-.07-.22-.5-.43-1.01-.65-1.51,0,0,0-.02-.01-.02-.02-.02-.04-.03-.06-.04,0,0-.03.02-.03.03-.07.19-.15.37-.22.56-.13.33-.26.67-.38,1,0,.02-.01.05-.01.08,0,.01.01.03.03.04.02,0,.05.01.08.01.19,0,.38,0,.58,0Z"/>
    <path class="uuid-7e56567a-b8a9-49b8-b585-63efee53edd6" d="M23.08,70.52s.01.07.01.1c0,.05-.03.09-.08.09-.03,0-.05,0-.08,0-.75,0-1.5,0-2.25,0-.03,0-.05,0-.08,0-.06,0-.09-.04-.09-.11,0,0,0-.02,0-.03,0-.04.03-.07.06-.07.07,0,.14,0,.21-.01.1-.01.19-.02.28-.04.12-.03.25-.17.18-.35-.02-.05-.04-.1-.06-.15-.11-.28-.22-.55-.33-.83-.02-.05-.05-.09-.07-.13-.07,0-.13,0-.19,0-.45,0-.89,0-1.34,0-.05,0-.11,0-.16,0-.02,0-.04.03-.06.04-.02.02-.02.05-.03.07-.1.25-.2.5-.29.76-.02.06-.04.12-.05.18,0,.06-.01.12,0,.18.01.08.06.14.13.18.06.03.11.04.17.05.09.01.17.02.26.03.09.01.11.05.09.15,0,.02-.03.05-.05.06-.03.01-.07.01-.1.01-.46,0-.93,0-1.39,0-.03,0-.07,0-.1-.02,0,0-.02,0-.02-.01-.02-.03-.03-.12,0-.15.01-.01.03-.02.04-.03.04-.01.09-.02.13-.03.15-.03.25-.12.33-.24.03-.05.06-.11.09-.16.04-.09.08-.18.11-.26.21-.54.43-1.09.64-1.63.38-.96.75-1.92,1.13-2.88.03-.08.07-.16.1-.24.02-.06.07-.07.13-.07.05,0,.08.02.1.06.02.04.04.08.05.12.19.46.39.92.58,1.38.38.89.75,1.79,1.13,2.68.12.27.23.55.35.82.03.06.06.13.09.19.06.11.15.19.28.23.04.01.08.03.13.04ZM19.93,68.62s0,0,0,0c.14,0,.28,0,.42,0,.09,0,.17,0,.26,0,.02,0,.05-.04.04-.06,0-.02,0-.03-.01-.05-.22-.52-.45-1.04-.67-1.56-.01-.03-.04-.05-.06-.04-.01,0-.03.02-.03.03-.07.18-.14.36-.21.53-.13.34-.26.68-.39,1.02,0,.02-.01.03-.02.05,0,.03.02.07.05.07.21,0,.42,0,.63,0Z"/>
    <path class="uuid-7e56567a-b8a9-49b8-b585-63efee53edd6" d="M26.98,70.71c-.66,0-1.33,0-1.99,0-.08,0-.16,0-.24,0-.03,0-.06-.04-.07-.07,0-.03,0-.05,0-.08,0-.03.02-.05.05-.05.06,0,.12,0,.18-.01.08,0,.16-.02.23-.05.12-.05.21-.13.23-.26.01-.06.02-.12.03-.18,0-.05,0-.1,0-.16,0-1.29,0-2.59,0-3.88,0-.11,0-.23-.03-.34-.03-.12-.1-.2-.21-.25-.07-.03-.15-.06-.23-.06-.07,0-.14,0-.21,0-.03,0-.05-.02-.05-.05,0-.03,0-.07,0-.1,0-.01.02-.03.03-.04.01,0,.03-.01.05-.01.04,0,.09,0,.13,0,.76,0,1.52,0,2.28,0,.05,0,.1,0,.16,0,.02,0,.05.02.05.05,0,.03,0,.07,0,.1,0,.01-.02.03-.03.04-.07,0-.14.01-.21.01-.1,0-.19.03-.28.07-.1.05-.16.13-.18.24,0,.03-.01.07-.01.1,0,.06,0,.12,0,.18,0,1.29,0,2.59,0,3.88,0,.07,0,.14,0,.21,0,.03,0,.07.02.1.03.09.08.15.17.19.08.03.17.05.26.05.16,0,.31.01.47,0,.34-.02.65-.12.93-.31.14-.09.26-.21.34-.36.07-.11.13-.23.17-.35.07-.18.13-.36.17-.55.01-.07.03-.14.05-.2,0-.02.03-.04.06-.05.03,0,.07,0,.1,0,.01,0,.03.02.03.03,0,.05,0,.1,0,.16-.02.23-.05.47-.07.7-.03.3-.06.59-.09.89,0,.1-.02.19-.03.29-.01.1-.03.11-.14.11-.24,0-.47,0-.71,0-.48,0-.96,0-1.44,0Z"/>
    <path class="uuid-7e56567a-b8a9-49b8-b585-63efee53edd6" d="M13.88,32.69c.64,0,1.18.14,1.7.4.05.02.09.05.13.08,0,0,0,.02,0,.02,0,0,0,.02-.01.02-.1.02-.21.04-.31.05-.36.06-.69.19-.98.41-.26.19-.46.43-.62.71-.25.41-.37.86-.38,1.35,0,.37.04.73.12,1.09,0,.04.02.09.03.13,0,.02-.02.06-.04.06-.1.01-.19,0-.29-.02-.16-.04-.32-.09-.47-.17-.41-.21-.76-.5-1.04-.86-.11-.14-.2-.29-.27-.45-.16-.33-.25-.69-.28-1.06,0-.1,0-.19,0-.29,0-.13.06-.25.14-.36.08-.1.17-.18.26-.26.43-.35.92-.6,1.46-.74.3-.07.6-.12.85-.11Z"/>
    <path class="uuid-7e56567a-b8a9-49b8-b585-63efee53edd6" d="M52.94,33.21s0-.04,0-.05c.02-.02.04-.03.06-.05.35-.19.72-.31,1.11-.38.31-.06.63-.06.94-.04.36.03.7.12,1.04.25.36.14.69.34.98.59.07.06.13.12.19.18.1.11.15.23.17.38.02.21,0,.42-.03.63-.12.69-.45,1.26-1,1.7-.18.15-.38.28-.59.38-.19.09-.39.15-.6.18-.03,0-.07,0-.1,0-.01,0-.03-.02-.03-.04,0-.03,0-.05,0-.08.03-.15.06-.31.09-.46.06-.29.06-.57.04-.86-.05-.64-.3-1.2-.75-1.66-.32-.34-.73-.53-1.19-.61-.11-.02-.22-.04-.33-.05Z"/>
    <path class="uuid-7e56567a-b8a9-49b8-b585-63efee53edd6" d="M26.15,36.2s0,.04-.02.05c-.03.03-.06.06-.09.09-.59.5-1.16,1.04-1.72,1.57-.27.26-.52.54-.74.85-.11.15-.14.14-.27.05-.38-.26-.73-.55-1.03-.89-.15-.16-.27-.34-.37-.54-.02-.03-.03-.06-.04-.09-.02-.04,0-.09.04-.11.02-.01.05-.03.07-.04.25-.11.47-.26.67-.45.68-.62,1.35-1.24,2.01-1.88.02-.02.05-.05.08-.07.03-.03.09-.02.11.02.06.1.12.19.18.29.13.21.28.4.46.56.2.18.41.36.62.52.02.01.03.04.05.06Z"/>
    <path class="uuid-7e56567a-b8a9-49b8-b585-63efee53edd6" d="M41.13,31.89s.05.02.07.04c.09.07.17.15.26.22.09.08.17.17.26.26.33.34.69.64,1.04.95.23.21.47.41.71.62.13.12.26.23.43.3.02,0,.05.03.07.04.04.02.05.07.03.12-.02.06-.04.11-.08.17-.07.12-.15.24-.23.35-.31.4-.7.73-1.12,1.02-.04.03-.08.02-.12-.02-.35-.42-.78-.77-1.18-1.15-.27-.26-.56-.5-.84-.75-.1-.09-.2-.17-.3-.26-.1-.09-.21-.16-.32-.23-.05-.03-.1-.07-.13-.13-.01-.03,0-.08.02-.1.04-.03.08-.06.13-.09.49-.25.84-.64,1.11-1.12.04-.07.07-.14.11-.21.01-.02.04-.03.06-.04Z"/>
    <path class="uuid-7e56567a-b8a9-49b8-b585-63efee53edd6" d="M26.55,35.99s-.02,0-.03,0c-.02-.01-.05-.02-.07-.04-.37-.29-.72-.61-1.02-.97-.14-.17-.26-.35-.36-.55-.02-.04,0-.09.03-.11.25-.13.46-.32.67-.5.61-.53,1.22-1.07,1.81-1.63.11-.1.21-.21.32-.31.02-.02.07-.01.09.02.06.11.11.22.17.32.13.22.29.42.47.59.17.16.35.32.54.45.04.03.08.07.12.1,0,0,0,.04,0,.05-.03.03-.05.07-.08.1-.38.34-.76.67-1.13,1.01-.34.31-.68.63-1.01.95-.16.15-.3.32-.45.48-.02.02-.04.03-.06.04Z"/>
    <path class="uuid-7e56567a-b8a9-49b8-b585-63efee53edd6" d="M45.57,38.89s-.04-.01-.04-.03c-.13-.29-.36-.51-.58-.73-.59-.58-1.2-1.15-1.83-1.68-.02-.02-.04-.03-.06-.05-.19-.17-.2-.16.01-.31.46-.32.83-.71,1.13-1.19.09-.15.12-.17.25-.03.39.4.79.79,1.2,1.17.3.28.61.55.92.82.15.14.31.25.51.32.02,0,.03.02.05.02.03.01.05.06.04.09-.04.09-.07.18-.12.26-.12.2-.25.38-.41.54-.23.25-.47.49-.76.67-.07.05-.15.08-.23.12-.01,0-.03,0-.05,0Z"/>
    <path class="uuid-7e56567a-b8a9-49b8-b585-63efee53edd6" d="M25.08,37.62c.17-.13.33-.29.49-.43.81-.73,1.62-1.47,2.42-2.2.18-.17.38-.31.62-.37,1.18-.44,2.35-.88,3.53-1.31.18-.07.36-.13.54-.2.06-.02.11-.05.16-.08h0s.03.06,0,.09c-.16.15-.33.29-.49.44-.26.25-.56.44-.87.61-1.33.72-2.65,1.45-3.97,2.17-.72.39-1.44.79-2.16,1.18-.04.02-.08.04-.11.06-.05.03-.1.02-.15.03h0Z"/>
    <path class="uuid-7e56567a-b8a9-49b8-b585-63efee53edd6" d="M36.11,33.07s.08-.02.13,0c.13.05.26.1.39.15,1.14.43,2.29.85,3.43,1.28.18.07.36.14.54.2.1.04.19.09.26.16.41.38.83.75,1.24,1.13.56.51,1.12,1.02,1.69,1.53.04.04.08.07.12.1h0s-.07,0-.1-.01c-.06-.02-.11-.05-.16-.08-1.29-.71-2.59-1.42-3.88-2.13-.83-.46-1.67-.92-2.5-1.37-.14-.08-.27-.16-.38-.27-.19-.17-.38-.33-.57-.5-.07-.06-.13-.12-.19-.18h0Z"/>
    <path class="uuid-7e56567a-b8a9-49b8-b585-63efee53edd6" d="M23.02,39.14s0,.02,0,.02c-.02.03-.04.05-.07.08-.36.32-.71.64-1.07.96-.02.02-.04.04-.06.05-.03.01-.06.02-.1.03-.02,0-.03,0-.05,0-.39-.07-.77-.13-1.16-.2-.03,0-.05,0-.08-.02-.06-.02-.11-.06-.13-.12-.03-.08-.06-.16-.09-.25-.05-.16-.11-.31-.16-.47-.02-.06,0-.12.04-.17.03-.02.05-.05.07-.07.44-.42.87-.83,1.31-1.25.03-.03.06-.06.1-.09.03-.02.07-.01.09.02.02.03.03.06.05.09.18.31.4.59.67.83.16.14.33.28.51.4.04.03.08.06.12.1.01,0,0,.03.01.05Z"/>
    <path class="uuid-7e56567a-b8a9-49b8-b585-63efee53edd6" d="M23.71,39.26s.06-.1.09-.15c.24-.37.49-.74.74-1.11.02-.04.05-.07.08-.1.01-.01.03-.02.05-.01.04.01.08.03.12.05.46.23.92.47,1.37.71.65.34,1.3.67,1.95,1.01.06.03.12.07.18.11,0,0,.01.04,0,.04-.02.03-.05.05-.08.07-.12.07-.24.14-.36.21-.14.01-.28-.04-.41-.06-.73-.13-1.46-.27-2.19-.41-.48-.09-.96-.18-1.44-.27-.04,0-.08-.02-.11-.07Z"/>
    <path class="uuid-7e56567a-b8a9-49b8-b585-63efee53edd6" d="M45.29,39.27s-.08.06-.12.07c-.49.09-.98.18-1.47.27-.61.11-1.22.23-1.82.34-.21.04-.43.08-.64.12-.05,0-.1,0-.15-.03-.13-.08-.27-.16-.4-.25.02-.03.03-.06.05-.07.11-.06.23-.12.35-.18,1.04-.54,2.08-1.07,3.12-1.61.04-.02.08-.04.12-.05.02,0,.05,0,.07.01.02.01.04.04.05.06.26.4.53.8.79,1.2.02.04.04.08.06.11Z"/>
    <path class="uuid-7e56567a-b8a9-49b8-b585-63efee53edd6" d="M48.73,38.91c-.03.06-.06.11-.09.16-.07.12-.11.25-.15.39-.05.19-.11.39-.16.58-.01.04-.05.07-.1.08-.24.04-.48.09-.72.12-.08.01-.17.07-.26.02-.07-.03-.13-.09-.18-.15-.32-.28-.64-.57-.95-.86-.03-.03-.06-.06-.08-.1,0-.01,0-.04,0-.05.02-.03.05-.05.08-.07.13-.09.25-.18.38-.28.22-.17.41-.37.59-.59.1-.12.18-.26.25-.4.01-.02.03-.05.04-.07.02-.03.06-.04.09-.02.05.05.11.09.16.14.34.33.68.65,1.02.98.03.03.06.07.09.1Z"/>
    <path class="uuid-7e56567a-b8a9-49b8-b585-63efee53edd6" d="M28.43,31.7s.04,0,.05.01c.08.05.17.09.24.16.27.22.51.47.71.76.07.09.13.19.16.3,0,.02,0,.05,0,.07,0,.03-.06.03-.09.01-.03-.01-.06-.03-.09-.05-.07-.05-.14-.1-.21-.16-.26-.21-.47-.46-.67-.73-.07-.09-.13-.19-.15-.3,0-.03.03-.08.06-.07Z"/>
    <path class="uuid-7e56567a-b8a9-49b8-b585-63efee53edd6" d="M40.72,31.72s-.02.07-.04.1c-.06.12-.13.22-.21.33-.18.23-.4.44-.63.63-.08.07-.17.13-.27.16-.03,0-.06,0-.07-.02-.01-.02-.02-.05-.01-.07.04-.08.07-.16.12-.23.22-.31.47-.58.78-.81.07-.05.14-.1.22-.13.02,0,.04,0,.05,0,.02.01.04.03.06.05Z"/>
    <path class="uuid-7e56567a-b8a9-49b8-b585-63efee53edd6" d="M32.85,33.02s.01.01.02.02c0,0-.01-.01-.02-.02,0,0,0,0,0,0Z"/>
    <path class="uuid-7e56567a-b8a9-49b8-b585-63efee53edd6" d="M25.08,37.61s.01.01.02.02c0-.02,0-.02-.02,0,0,0,0-.01,0-.01Z"/>
    <polygon class="uuid-7e56567a-b8a9-49b8-b585-63efee53edd6" points="36.12 33.07 36.12 33.05 36.11 33.07 36.12 33.07"/>
    <path class="uuid-7e56567a-b8a9-49b8-b585-63efee53edd6" d="M43.91,37.61s-.01,0-.02,0c0,.02.01.01,0,0,0,0,0,.01,0,.01Z"/>
    <path class="uuid-7e56567a-b8a9-49b8-b585-63efee53edd6" d="M4.17,15.6s0-.02,0-.03c0,0,0,.01,0,.02,0,0,0,.01-.01.02,0,0,0,0,0,0Z"/>
    <path class="uuid-7e56567a-b8a9-49b8-b585-63efee53edd6" d="M18.43,7.75s-.01,0-.02.01c0,0,.01,0,.02-.01,0,0,0,0,0,0Z"/>
    <path class="uuid-7e56567a-b8a9-49b8-b585-63efee53edd6" d="M45.39,59.5c-.09,0-.19-.02-.28-.08-.05-.03-.1-.07-.13-.13-.06-.1-.06-.2,0-.3.03-.06.08-.11.14-.15.2-.11.4-.12.59,0,.04.02.07.05.1.08.11.11.11.29.01.4-.1.12-.24.17-.43.17Z"/>
    <path class="uuid-7e56567a-b8a9-49b8-b585-63efee53edd6" d="M45.67,57.99c0,.07-.02.13-.06.19-.14.17-.39.19-.52.12-.07-.04-.13-.09-.17-.16-.04-.08-.04-.15,0-.22.09-.16.24-.24.44-.22.1.01.18.05.25.13.04.05.06.1.06.17Z"/>
    <path class="uuid-7e56567a-b8a9-49b8-b585-63efee53edd6" d="M56.02,57.56c-.2,0-.34-.08-.43-.23-.11-.17-.07-.45.21-.55.22-.07.46.01.58.24.13.26-.06.5-.27.54-.03,0-.07,0-.08,0Z"/>
    <path class="uuid-7e56567a-b8a9-49b8-b585-63efee53edd6" d="M31.08,59.02c-.1,0-.13-.03-.13-.06.05-.27.11-.55.16-.82,0-.02.02-.05.03-.07,0-.02.03-.02.04,0,.02.02.05.05.07.08.13.2.26.41.39.62,0,.01.01.03.02.05.01.03-.01.07-.04.08-.2.06-.4.1-.55.13Z"/>
    <path class="uuid-7e56567a-b8a9-49b8-b585-63efee53edd6" d="M19.97,58.15c-.14-.02-.34-.05-.54-.08-.03,0-.05-.05-.04-.08,0,0,0-.02,0-.02.13-.23.26-.45.4-.68.01-.03.05-.04.06-.02.01.01.03.02.04.04.01.02.02.05.02.07.04.13.07.25.1.38.03.1.06.2.08.3.02.06-.02.11-.14.1Z"/>
    <path class="uuid-7e56567a-b8a9-49b8-b585-63efee53edd6" d="M12.2,58.07s-.05-.04-.05-.05c0-.03,0-.07,0-.1.06-.23.11-.46.17-.68,0-.02.01-.03.02-.05,0-.02.05-.03.06-.02.03.03.06.07.08.1.13.18.26.35.38.53.02.03.04.07.06.11,0,.01,0,.03-.02.04-.01.01-.03.02-.05.02-.21.03-.41.06-.62.1-.02,0-.03,0-.05,0Z"/>
  </g>
  <g>
    <path class="uuid-7e56567a-b8a9-49b8-b585-63efee53edd6" d="M141.2,31.68h-5.85l-.7,1.61c-.23.54-.34.98-.34,1.33,0,.46.19.81.56,1.03.22.13.76.23,1.62.29v.45h-5.5v-.45c.59-.09,1.08-.34,1.46-.74s.85-1.23,1.42-2.5l5.92-13.2h.23l5.97,13.57c.57,1.29,1.04,2.09,1.4,2.43.28.25.67.4,1.17.44v.45h-8.01v-.45h.33c.64,0,1.09-.09,1.35-.27.18-.13.27-.32.27-.56,0-.15-.02-.3-.07-.45-.02-.07-.14-.38-.37-.92l-.88-2.06ZM140.78,30.77l-2.47-5.7-2.54,5.7h5Z"/>
    <path class="uuid-7e56567a-b8a9-49b8-b585-63efee53edd6" d="M164.63,30.58l-.62,5.81h-14.69v-.45h.55c.48,0,.87-.09,1.16-.26.21-.11.37-.31.49-.59.09-.2.13-.71.13-1.54v-10.89c0-.85-.04-1.37-.13-1.59s-.27-.4-.54-.56-.64-.24-1.1-.24h-.55v-.45h8.82v.45h-.72c-.48,0-.87.09-1.16.26-.21.11-.38.31-.5.59-.09.2-.13.71-.13,1.54v10.54c0,.85.05,1.39.15,1.62s.29.4.57.52c.2.07.7.11,1.48.11h1.38c.88,0,1.61-.15,2.2-.46s1.09-.8,1.52-1.46.83-1.65,1.21-2.95h.5Z"/>
    <path class="uuid-7e56567a-b8a9-49b8-b585-63efee53edd6" d="M182.2,19.46v5.74h-.48c-.36-1.5-1.03-2.64-2-3.44s-2.08-1.2-3.32-1.2c-1.03,0-1.98.3-2.84.89s-1.49,1.37-1.89,2.33c-.51,1.23-.77,2.6-.77,4.1s.19,2.83.56,4.05.96,2.14,1.76,2.76,1.83.93,3.1.93c1.04,0,2-.23,2.86-.68s1.78-1.24,2.74-2.36v1.43c-.93.97-1.89,1.67-2.9,2.11s-2.18.65-3.52.65c-1.77,0-3.33-.35-4.7-1.06s-2.43-1.72-3.17-3.05-1.12-2.74-1.12-4.23c0-1.58.41-3.08,1.24-4.49s1.94-2.51,3.34-3.29,2.89-1.17,4.47-1.17c1.16,0,2.39.25,3.69.76.75.29,1.22.44,1.43.44.26,0,.49-.1.68-.29s.32-.49.37-.91h.48Z"/>
    <path class="uuid-7e56567a-b8a9-49b8-b585-63efee53edd6" d="M193.96,31.68h-5.85l-.7,1.61c-.23.54-.34.98-.34,1.33,0,.46.19.81.56,1.03.22.13.76.23,1.62.29v.45h-5.5v-.45c.59-.09,1.08-.34,1.46-.74s.85-1.23,1.42-2.5l5.92-13.2h.23l5.97,13.57c.57,1.29,1.04,2.09,1.4,2.43.28.25.67.4,1.17.44v.45h-8.01v-.45h.33c.64,0,1.09-.09,1.35-.27.18-.13.27-.32.27-.56,0-.15-.02-.3-.07-.45-.02-.07-.14-.38-.37-.92l-.88-2.06ZM193.55,30.77l-2.47-5.7-2.54,5.7h5Z"/>
    <path class="uuid-7e56567a-b8a9-49b8-b585-63efee53edd6" d="M217.39,30.58l-.62,5.81h-14.69v-.45h.55c.48,0,.87-.09,1.16-.26.21-.11.37-.31.49-.59.09-.2.13-.71.13-1.54v-10.89c0-.85-.04-1.37-.13-1.59s-.27-.4-.54-.56-.64-.24-1.1-.24h-.55v-.45h8.82v.45h-.72c-.48,0-.87.09-1.16.26-.21.11-.38.31-.5.59-.09.2-.13.71-.13,1.54v10.54c0,.85.05,1.39.15,1.62s.29.4.57.52c.2.07.7.11,1.48.11h1.38c.88,0,1.61-.15,2.2-.46s1.09-.8,1.52-1.46.83-1.65,1.21-2.95h.5Z"/>
    <path class="uuid-7e56567a-b8a9-49b8-b585-63efee53edd6" d="M218.61,36.39v-.45h.55c.48,0,.85-.08,1.1-.23s.45-.36.57-.62c.07-.17.11-.68.11-1.54v-10.89c0-.85-.04-1.37-.13-1.59s-.27-.4-.54-.56-.64-.24-1.1-.24h-.55v-.45h7.41c1.98,0,3.57.27,4.77.81,1.47.66,2.59,1.66,3.35,2.99s1.14,2.84,1.14,4.53c0,1.16-.19,2.24-.56,3.22s-.86,1.79-1.45,2.43-1.28,1.15-2.06,1.54-1.73.69-2.85.9c-.5.1-1.28.15-2.34.15h-7.41ZM224.92,20.78v12.91c0,.68.03,1.1.1,1.26s.17.27.33.35c.22.12.54.18.95.18,1.36,0,2.4-.46,3.11-1.39.98-1.25,1.46-3.2,1.46-5.83,0-2.12-.33-3.82-1-5.09-.53-.99-1.21-1.67-2.04-2.03-.59-.25-1.56-.37-2.92-.37Z"/>
    <path class="uuid-7e56567a-b8a9-49b8-b585-63efee53edd6" d="M245.48,35.94v.45h-8.65v-.45h.55c.48,0,.87-.09,1.16-.26.21-.11.37-.31.49-.59.09-.2.13-.71.13-1.54v-10.89c0-.85-.04-1.37-.13-1.59s-.27-.4-.54-.56-.64-.24-1.1-.24h-.55v-.45h8.65v.45h-.55c-.48,0-.87.09-1.16.26-.21.11-.38.31-.5.59-.09.2-.13.71-.13,1.54v10.89c0,.85.05,1.37.14,1.59s.28.4.55.56.64.24,1.1.24h.55ZM244.85,14.19l-4.04,4.23h-1.05l1.42-4.23h3.67Z"/>
    <path class="uuid-7e56567a-b8a9-49b8-b585-63efee53edd6" d="M256.46,31.68h-5.85l-.7,1.61c-.23.54-.34.98-.34,1.33,0,.46.19.81.56,1.03.22.13.76.23,1.62.29v.45h-5.5v-.45c.59-.09,1.08-.34,1.46-.74s.85-1.23,1.42-2.5l5.92-13.2h.23l5.97,13.57c.57,1.29,1.04,2.09,1.4,2.43.28.25.67.4,1.17.44v.45h-8.01v-.45h.33c.64,0,1.09-.09,1.35-.27.18-.13.27-.32.27-.56,0-.15-.02-.3-.07-.45-.02-.07-.14-.38-.37-.92l-.88-2.06ZM256.04,30.77l-2.47-5.7-2.54,5.7h5Z"/>
    <path class="uuid-7e56567a-b8a9-49b8-b585-63efee53edd6" d="M280.89,30.75l4.49-10.91h6.74v.45h-.54c-.49,0-.88.09-1.17.26-.2.11-.37.31-.49.57-.09.2-.13.7-.13,1.53v10.91c0,.85.04,1.37.13,1.59s.27.4.55.56.65.24,1.11.24h.54v.45h-8.64v-.45h.54c.49,0,.88-.09,1.17-.26.2-.11.37-.31.49-.59.09-.2.13-.71.13-1.54v-12.26l-6.35,15.1h-.29l-6.44-14.99v11.65c0,.81.02,1.31.06,1.5.11.41.34.74.69.99s.91.38,1.67.38v.45h-5.66v-.45h.17c.37,0,.71-.05,1.03-.18s.56-.29.72-.51.29-.51.38-.89c.02-.09.02-.5.02-1.24v-10.47c0-.84-.04-1.36-.13-1.57s-.27-.39-.55-.55-.65-.24-1.11-.24h-.52v-.45h6.76l4.65,10.91Z"/>
    <path class="uuid-7e56567a-b8a9-49b8-b585-63efee53edd6" d="M293.15,19.84h8.54v.45h-.43c-.64,0-1.08.07-1.32.2s-.41.32-.51.56-.15.83-.15,1.77v8.1c0,1.48.11,2.46.34,2.94s.59.88,1.1,1.2,1.16.48,1.94.48c.89,0,1.66-.2,2.29-.6s1.1-.96,1.42-1.67.47-1.94.47-3.7v-6.75c0-.74-.08-1.27-.23-1.59s-.35-.54-.59-.66c-.37-.19-.88-.28-1.55-.28v-.45h5.72v.45h-.34c-.46,0-.85.09-1.16.28s-.53.47-.67.84c-.11.26-.16.73-.16,1.4v6.28c0,1.94-.13,3.35-.38,4.21s-.88,1.66-1.87,2.38-2.35,1.09-4.06,1.09c-1.43,0-2.54-.19-3.32-.57-1.07-.52-1.82-1.19-2.26-2s-.66-1.91-.66-3.28v-8.1c0-.95-.05-1.54-.16-1.78s-.29-.42-.55-.56-.74-.2-1.44-.2v-.45Z"/>
    <path class="uuid-7e56567a-b8a9-49b8-b585-63efee53edd6" d="M316.84,19.84l8.16,10.26v-7.11c0-.99-.14-1.66-.43-2.01-.39-.47-1.05-.7-1.96-.68v-.45h5.47v.45c-.7.09-1.17.21-1.41.35s-.43.37-.56.7-.2.87-.2,1.65v13.78h-.41l-11.19-13.78v10.52c0,.95.22,1.59.65,1.93s.93.5,1.49.5h.39v.45h-5.87v-.45c.91,0,1.55-.2,1.9-.56s.54-.99.54-1.87v-11.68l-.35-.44c-.35-.44-.66-.73-.93-.87s-.65-.22-1.16-.23v-.45h5.87Z"/>
    <path class="uuid-7e56567a-b8a9-49b8-b585-63efee53edd6" d="M337.81,35.94v.45h-8.65v-.45h.55c.48,0,.87-.09,1.16-.26.21-.11.37-.31.49-.59.09-.2.13-.71.13-1.54v-10.89c0-.85-.04-1.37-.13-1.59s-.27-.4-.54-.56-.64-.24-1.1-.24h-.55v-.45h8.65v.45h-.55c-.48,0-.87.09-1.16.26-.21.11-.38.31-.5.59-.09.2-.13.71-.13,1.54v10.89c0,.85.05,1.37.14,1.59s.28.4.55.56.64.24,1.1.24h.55Z"/>
    <path class="uuid-7e56567a-b8a9-49b8-b585-63efee53edd6" d="M355.07,19.46v5.74h-.48c-.36-1.5-1.03-2.64-2-3.44s-2.08-1.2-3.32-1.2c-1.03,0-1.98.3-2.84.89s-1.49,1.37-1.89,2.33c-.51,1.23-.77,2.6-.77,4.1s.19,2.83.56,4.05.96,2.14,1.76,2.76,1.83.93,3.1.93c1.04,0,2-.23,2.86-.68s1.78-1.24,2.74-2.36v1.43c-.93.97-1.89,1.67-2.9,2.11s-2.18.65-3.52.65c-1.77,0-3.33-.35-4.7-1.06s-2.43-1.72-3.17-3.05-1.12-2.74-1.12-4.23c0-1.58.41-3.08,1.24-4.49s1.94-2.51,3.34-3.29,2.89-1.17,4.47-1.17c1.16,0,2.39.25,3.69.76.75.29,1.22.44,1.43.44.26,0,.49-.1.68-.29s.32-.49.37-.91h.48Z"/>
    <path class="uuid-7e56567a-b8a9-49b8-b585-63efee53edd6" d="M365.59,35.94v.45h-8.65v-.45h.55c.48,0,.87-.09,1.16-.26.21-.11.37-.31.49-.59.09-.2.13-.71.13-1.54v-10.89c0-.85-.04-1.37-.13-1.59s-.27-.4-.54-.56-.64-.24-1.1-.24h-.55v-.45h8.65v.45h-.55c-.48,0-.87.09-1.16.26-.21.11-.38.31-.5.59-.09.2-.13.71-.13,1.54v10.89c0,.85.05,1.37.14,1.59s.28.4.55.56.64.24,1.1.24h.55Z"/>
    <path class="uuid-7e56567a-b8a9-49b8-b585-63efee53edd6" d="M372.91,28.9v4.59c0,.89.05,1.46.16,1.69s.31.42.59.56.8.21,1.54.21v.45h-8.41v-.45c.76,0,1.28-.07,1.56-.21s.46-.33.57-.56.16-.79.16-1.68v-10.74c0-.89-.05-1.46-.16-1.69s-.3-.42-.58-.56-.79-.21-1.55-.21v-.45h7.21c2.38,0,4.08.42,5.11,1.27s1.55,1.9,1.55,3.17c0,1.07-.33,1.99-1,2.76s-1.59,1.29-2.76,1.56c-.79.2-2.12.29-4,.29ZM372.91,20.79v7.15c.27.02.47.02.61.02.99,0,1.76-.29,2.29-.88s.81-1.5.81-2.74-.27-2.13-.81-2.7-1.34-.85-2.4-.85h-.5Z"/>
    <path class="uuid-7e56567a-b8a9-49b8-b585-63efee53edd6" d="M389.97,31.68h-5.85l-.7,1.61c-.23.54-.34.98-.34,1.33,0,.46.19.81.56,1.03.22.13.76.23,1.62.29v.45h-5.5v-.45c.59-.09,1.08-.34,1.46-.74s.85-1.23,1.42-2.5l5.92-13.2h.23l5.97,13.57c.57,1.29,1.04,2.09,1.4,2.43.28.25.67.4,1.17.44v.45h-8.01v-.45h.33c.64,0,1.09-.09,1.35-.27.18-.13.27-.32.27-.56,0-.15-.02-.3-.07-.45-.02-.07-.14-.38-.37-.92l-.88-2.06ZM389.55,30.77l-2.47-5.7-2.54,5.7h5Z"/>
    <path class="uuid-7e56567a-b8a9-49b8-b585-63efee53edd6" d="M413.4,30.58l-.62,5.81h-14.69v-.45h.55c.48,0,.87-.09,1.16-.26.21-.11.37-.31.49-.59.09-.2.13-.71.13-1.54v-10.89c0-.85-.04-1.37-.13-1.59s-.27-.4-.54-.56-.64-.24-1.1-.24h-.55v-.45h8.82v.45h-.72c-.48,0-.87.09-1.16.26-.21.11-.38.31-.5.59-.09.2-.13.71-.13,1.54v10.54c0,.85.05,1.39.15,1.62s.29.4.57.52c.2.07.7.11,1.48.11h1.38c.88,0,1.61-.15,2.2-.46s1.09-.8,1.52-1.46.83-1.65,1.21-2.95h.5Z"/>
    <path class="uuid-7e56567a-b8a9-49b8-b585-63efee53edd6" d="M419.49,36.39v-.45h.55c.48,0,.85-.08,1.1-.23s.45-.36.57-.62c.07-.17.11-.68.11-1.54v-10.89c0-.85-.04-1.37-.13-1.59s-.27-.4-.54-.56-.64-.24-1.1-.24h-.55v-.45h7.41c1.98,0,3.57.27,4.77.81,1.47.66,2.59,1.66,3.35,2.99s1.14,2.84,1.14,4.53c0,1.16-.19,2.24-.56,3.22s-.86,1.79-1.45,2.43-1.28,1.15-2.06,1.54-1.73.69-2.85.9c-.5.1-1.28.15-2.34.15h-7.41ZM425.8,20.78v12.91c0,.68.03,1.1.1,1.26s.17.27.33.35c.22.12.54.18.95.18,1.36,0,2.4-.46,3.11-1.39.98-1.25,1.46-3.2,1.46-5.83,0-2.12-.33-3.82-1-5.09-.53-.99-1.21-1.67-2.04-2.03-.59-.25-1.56-.37-2.92-.37Z"/>
    <path class="uuid-7e56567a-b8a9-49b8-b585-63efee53edd6" d="M444.02,20.79v6.74h.33c1.05,0,1.81-.33,2.28-.99s.77-1.63.9-2.92h.46v8.66h-.46c-.1-.94-.3-1.72-.62-2.32s-.68-1.01-1.09-1.21-1.02-.31-1.81-.31v4.66c0,.91.04,1.47.12,1.67s.22.37.43.5.55.2,1.03.2h.99c1.55,0,2.78-.36,3.72-1.07s1.6-1.81,2.01-3.27h.45l-.74,5.26h-14.3v-.45h.55c.48,0,.87-.09,1.16-.26.21-.11.37-.31.49-.59.09-.2.13-.71.13-1.54v-10.89c0-.75-.02-1.21-.06-1.38-.08-.28-.23-.5-.45-.66-.31-.23-.73-.34-1.27-.34h-.55v-.45h13.85v4.89h-.46c-.24-1.2-.57-2.05-.99-2.57s-1.03-.9-1.81-1.15c-.46-.15-1.31-.22-2.56-.22h-1.71Z"/>
    <path class="uuid-7e56567a-b8a9-49b8-b585-63efee53edd6" d="M475.44,19.84v4.48h-.44c-.26-1.03-.55-1.78-.87-2.23s-.75-.81-1.31-1.08c-.31-.15-.85-.22-1.62-.22h-1.23v12.76c0,.85.05,1.37.14,1.59s.28.4.55.56.64.24,1.12.24h.55v.45h-8.66v-.45h.55c.48,0,.87-.09,1.16-.26.21-.11.38-.31.5-.59.09-.2.13-.71.13-1.54v-12.76h-1.2c-1.11,0-1.92.24-2.43.71-.71.66-1.16,1.6-1.34,2.82h-.46v-4.48h14.86Z"/>
    <path class="uuid-7e56567a-b8a9-49b8-b585-63efee53edd6" d="M484.89,31.68h-5.85l-.7,1.61c-.23.54-.34.98-.34,1.33,0,.46.19.81.56,1.03.22.13.76.23,1.62.29v.45h-5.5v-.45c.59-.09,1.08-.34,1.46-.74s.85-1.23,1.42-2.5l5.92-13.2h.23l5.97,13.57c.57,1.29,1.04,2.09,1.4,2.43.28.25.67.4,1.17.44v.45h-8.01v-.45h.33c.64,0,1.09-.09,1.35-.27.18-.13.27-.32.27-.56,0-.15-.02-.3-.07-.45-.02-.07-.14-.38-.37-.92l-.88-2.06ZM484.47,30.77l-2.47-5.7-2.54,5.7h5Z"/>
    <path class="uuid-7e56567a-b8a9-49b8-b585-63efee53edd6" d="M508.32,30.58l-.62,5.81h-14.69v-.45h.55c.48,0,.87-.09,1.16-.26.21-.11.37-.31.49-.59.09-.2.13-.71.13-1.54v-10.89c0-.85-.04-1.37-.13-1.59s-.27-.4-.54-.56-.64-.24-1.1-.24h-.55v-.45h8.82v.45h-.72c-.48,0-.87.09-1.16.26-.21.11-.38.31-.5.59-.09.2-.13.71-.13,1.54v10.54c0,.85.05,1.39.15,1.62s.29.4.57.52c.2.07.7.11,1.48.11h1.38c.88,0,1.61-.15,2.2-.46s1.09-.8,1.52-1.46.83-1.65,1.21-2.95h.5Z"/>
    <path class="uuid-7e56567a-b8a9-49b8-b585-63efee53edd6" d="M519.6,31.68h-5.85l-.7,1.61c-.23.54-.34.98-.34,1.33,0,.46.19.81.56,1.03.22.13.76.23,1.62.29v.45h-5.5v-.45c.59-.09,1.08-.34,1.46-.74s.85-1.23,1.42-2.5l5.92-13.2h.23l5.97,13.57c.57,1.29,1.04,2.09,1.4,2.43.28.25.67.4,1.17.44v.45h-8.01v-.45h.33c.64,0,1.09-.09,1.35-.27.18-.13.27-.32.27-.56,0-.15-.02-.3-.07-.45-.02-.07-.14-.38-.37-.92l-.88-2.06ZM519.19,30.77l-2.47-5.7-2.54,5.7h5Z"/>
    <path class="uuid-7e56567a-b8a9-49b8-b585-63efee53edd6" d="M533.48,19.84l8.16,10.26v-7.11c0-.99-.14-1.66-.43-2.01-.39-.47-1.05-.7-1.96-.68v-.45h5.47v.45c-.7.09-1.17.21-1.41.35s-.43.37-.56.7-.2.87-.2,1.65v13.78h-.41l-11.19-13.78v10.52c0,.95.22,1.59.65,1.93s.93.5,1.49.5h.39v.45h-5.87v-.45c.91,0,1.55-.2,1.9-.56s.54-.99.54-1.87v-11.68l-.35-.44c-.35-.44-.66-.73-.93-.87s-.65-.22-1.16-.23v-.45h5.87Z"/>
    <path class="uuid-7e56567a-b8a9-49b8-b585-63efee53edd6" d="M562.55,19.46v5.83h-.45c-.55-1.59-1.36-2.81-2.45-3.64s-2.28-1.24-3.58-1.24-2.27.35-3.09,1.04-1.4,1.67-1.75,2.91-.51,2.52-.51,3.83c0,1.59.19,2.98.56,4.17s.98,2.07,1.81,2.64,1.82.84,2.97.84c.4,0,.81-.04,1.23-.13s.85-.21,1.29-.37v-3.44c0-.65-.04-1.07-.13-1.26s-.27-.36-.56-.52-.62-.23-1.02-.23h-.43v-.45h8.04v.45c-.61.04-1.04.12-1.28.25s-.43.34-.56.63c-.07.15-.11.53-.11,1.13v3.44c-1.06.47-2.16.83-3.3,1.07s-2.33.36-3.56.36c-1.57,0-2.87-.21-3.91-.64s-1.95-.99-2.75-1.68-1.41-1.48-1.86-2.35c-.57-1.12-.85-2.38-.85-3.77,0-2.49.87-4.59,2.62-6.31s3.95-2.57,6.6-2.57c.82,0,1.56.07,2.22.2.36.07.94.25,1.74.56s1.28.46,1.42.46c.23,0,.44-.08.63-.25s.37-.48.54-.95h.45Z"/>
    <path class="uuid-7e56567a-b8a9-49b8-b585-63efee53edd6" d="M575.14,31.68h-5.85l-.7,1.61c-.23.54-.34.98-.34,1.33,0,.46.19.81.56,1.03.22.13.76.23,1.62.29v.45h-5.5v-.45c.59-.09,1.08-.34,1.46-.74s.85-1.23,1.42-2.5l5.92-13.2h.23l5.97,13.57c.57,1.29,1.04,2.09,1.4,2.43.28.25.67.4,1.17.44v.45h-8.01v-.45h.33c.64,0,1.09-.09,1.35-.27.18-.13.27-.32.27-.56,0-.15-.02-.3-.07-.45-.02-.07-.14-.38-.37-.92l-.88-2.06ZM574.72,30.77l-2.47-5.7-2.54,5.7h5Z"/>
    <path class="uuid-7e56567a-b8a9-49b8-b585-63efee53edd6" d="M131.08,56.38v-.3h.41c.47,0,.8-.15.99-.45.12-.18.18-.58.18-1.2v-7.13c0-.69-.08-1.12-.23-1.29-.21-.24-.53-.36-.94-.36h-.41v-.3h4.49c1.65,0,2.9.19,3.76.56s1.55,1,2.07,1.87.79,1.88.79,3.03c0,1.53-.47,2.82-1.4,3.85-1.05,1.15-2.64,1.72-4.78,1.72h-4.93ZM134.23,55.58c.69.15,1.27.23,1.73.23,1.26,0,2.3-.44,3.13-1.33s1.24-2.08,1.24-3.6-.41-2.73-1.24-3.6-1.9-1.32-3.2-1.32c-.49,0-1.04.08-1.67.24v9.38Z"/>
    <path class="uuid-7e56567a-b8a9-49b8-b585-63efee53edd6" d="M146.31,45.95v4.36h2.42c.63,0,1.05-.09,1.26-.28.28-.25.44-.69.47-1.32h.3v3.84h-.3c-.08-.54-.15-.88-.23-1.03-.1-.19-.26-.34-.48-.45s-.56-.16-1.03-.16h-2.42v3.64c0,.49.02.79.07.89s.12.19.23.25.31.09.62.09h1.87c.62,0,1.08-.04,1.36-.13s.55-.26.81-.51c.34-.34.68-.84,1.03-1.52h.33l-.95,2.77h-8.5v-.3h.39c.26,0,.51-.06.74-.19.17-.09.29-.22.35-.39s.09-.53.09-1.07v-7.17c0-.7-.07-1.13-.21-1.29-.2-.22-.52-.33-.98-.33h-.39v-.3h8.5l.12,2.42h-.32c-.11-.58-.24-.98-.38-1.2s-.34-.38-.61-.5c-.22-.08-.6-.12-1.15-.12h-3.03Z"/>
    <path class="uuid-7e56567a-b8a9-49b8-b585-63efee53edd6" d="M156.43,51.22v3.21c0,.69.08,1.13.23,1.29.21.24.52.36.94.36h.42v.3h-4.73v-.3h.41c.47,0,.8-.15,1-.46.11-.17.16-.57.16-1.2v-7.13c0-.69-.07-1.13-.22-1.29-.21-.24-.53-.36-.94-.36h-.41v-.3h4.04c.99,0,1.77.1,2.33.31s1.05.55,1.44,1.03.59,1.05.59,1.72c0,.9-.3,1.63-.89,2.2s-1.43.85-2.52.85c-.27,0-.55-.02-.86-.06s-.64-.09-.99-.17ZM156.43,50.75c.29.05.54.09.76.12s.41.04.57.04c.56,0,1.05-.22,1.46-.65s.61-1,.61-1.7c0-.48-.1-.92-.29-1.33s-.47-.72-.83-.92-.76-.31-1.22-.31c-.28,0-.63.05-1.07.15v4.59Z"/>
    <path class="uuid-7e56567a-b8a9-49b8-b585-63efee53edd6" d="M168.37,52.69h-4.27l-.75,1.74c-.18.43-.28.75-.28.96,0,.17.08.32.24.44s.51.21,1.04.25v.3h-3.47v-.3c.46-.08.76-.19.89-.32.28-.26.58-.79.92-1.59l3.88-9.08h.28l3.84,9.18c.31.74.59,1.22.84,1.44s.6.34,1.05.37v.3h-4.35v-.3c.44-.02.74-.09.89-.22s.23-.28.23-.46c0-.24-.11-.62-.33-1.13l-.67-1.59ZM168.14,52.09l-1.87-4.46-1.92,4.46h3.79Z"/>
    <path class="uuid-7e56567a-b8a9-49b8-b585-63efee53edd6" d="M184.04,56.38h-2.95l-3.73-5.16c-.28.01-.5.02-.68.02-.07,0-.15,0-.23,0s-.17,0-.25-.01v3.21c0,.69.08,1.13.23,1.29.21.24.52.36.93.36h.43v.3h-4.73v-.3h.41c.47,0,.8-.15,1-.46.11-.17.17-.57.17-1.2v-7.13c0-.69-.08-1.13-.23-1.29-.21-.24-.53-.36-.94-.36h-.41v-.3h4.02c1.17,0,2.03.09,2.59.26s1.03.49,1.42.94.58,1,.58,1.64c0,.68-.22,1.27-.66,1.77s-1.13.85-2.05,1.06l2.28,3.16c.52.73.97,1.21,1.34,1.45s.86.39,1.46.46v.3ZM176.2,50.71c.1,0,.19,0,.27,0s.14,0,.19,0c1.05,0,1.85-.23,2.38-.68s.8-1.04.8-1.74-.22-1.25-.65-1.68-1-.65-1.71-.65c-.31,0-.74.05-1.28.15v4.59Z"/>
    <path class="uuid-7e56567a-b8a9-49b8-b585-63efee53edd6" d="M192.53,45.35l.12,2.59h-.31c-.06-.46-.14-.78-.24-.98-.17-.31-.39-.55-.67-.7s-.65-.22-1.1-.22h-1.55v8.43c0,.68.07,1.1.22,1.27.21.23.52.34.95.34h.38v.3h-4.68v-.3h.39c.47,0,.8-.14.99-.42.12-.17.18-.57.18-1.19v-8.43h-1.33c-.52,0-.88.04-1.1.11-.28.1-.52.3-.72.59s-.32.69-.36,1.19h-.31l.13-2.59h9.01Z"/>
    <path class="uuid-7e56567a-b8a9-49b8-b585-63efee53edd6" d="M199.36,52.69h-4.27l-.75,1.74c-.18.43-.28.75-.28.96,0,.17.08.32.24.44s.51.21,1.04.25v.3h-3.47v-.3c.46-.08.76-.19.89-.32.28-.26.58-.79.92-1.59l3.88-9.08h.28l3.84,9.18c.31.74.59,1.22.84,1.44s.6.34,1.05.37v.3h-4.35v-.3c.44-.02.74-.09.89-.22s.23-.28.23-.46c0-.24-.11-.62-.33-1.13l-.67-1.59ZM199.13,52.09l-1.87-4.46-1.92,4.46h3.79Z"/>
    <path class="uuid-7e56567a-b8a9-49b8-b585-63efee53edd6" d="M210.58,56.38l-4.26-9.28v7.37c0,.68.07,1.1.22,1.27.2.23.52.34.95.34h.39v.3h-3.84v-.3h.39c.47,0,.8-.14.99-.42.12-.17.18-.57.18-1.19v-7.21c0-.49-.05-.84-.16-1.06-.08-.16-.22-.29-.42-.39s-.53-.16-.98-.16v-.3h3.12l4,8.63,3.94-8.63h3.12v.3h-.38c-.47,0-.81.14-1,.42-.12.17-.18.57-.18,1.19v7.21c0,.68.08,1.1.23,1.27.2.23.52.34.95.34h.38v.3h-4.69v-.3h.39c.47,0,.8-.14.99-.42.12-.17.18-.57.18-1.19v-7.37l-4.25,9.28h-.27Z"/>
    <path class="uuid-7e56567a-b8a9-49b8-b585-63efee53edd6" d="M222.06,45.95v4.36h2.42c.63,0,1.05-.09,1.26-.28.28-.25.44-.69.47-1.32h.3v3.84h-.3c-.08-.54-.15-.88-.23-1.03-.1-.19-.26-.34-.48-.45s-.56-.16-1.03-.16h-2.42v3.64c0,.49.02.79.07.89s.12.19.23.25.31.09.62.09h1.87c.62,0,1.08-.04,1.36-.13s.55-.26.81-.51c.34-.34.68-.84,1.03-1.52h.33l-.95,2.77h-8.5v-.3h.39c.26,0,.51-.06.74-.19.17-.09.29-.22.35-.39s.09-.53.09-1.07v-7.17c0-.7-.07-1.13-.21-1.29-.2-.22-.52-.33-.98-.33h-.39v-.3h8.5l.12,2.42h-.32c-.11-.58-.24-.98-.38-1.2s-.34-.38-.61-.5c-.22-.08-.6-.12-1.15-.12h-3.03Z"/>
    <path class="uuid-7e56567a-b8a9-49b8-b585-63efee53edd6" d="M228.54,45.35h2.99l6.74,8.27v-6.36c0-.68-.08-1.1-.23-1.27-.2-.23-.52-.34-.95-.34h-.38v-.3h3.84v.3h-.39c-.47,0-.8.14-.99.42-.12.17-.18.57-.18,1.19v9.3h-.29l-7.27-8.88v6.79c0,.68.07,1.1.22,1.27.21.23.52.34.95.34h.39v.3h-3.84v-.3h.38c.47,0,.81-.14,1-.42.12-.17.18-.57.18-1.19v-7.67c-.32-.37-.56-.62-.73-.74s-.41-.23-.73-.33c-.16-.05-.4-.07-.72-.07v-.3Z"/>
    <path class="uuid-7e56567a-b8a9-49b8-b585-63efee53edd6" d="M250.43,45.35l.12,2.59h-.31c-.06-.46-.14-.78-.24-.98-.17-.31-.39-.55-.67-.7s-.65-.22-1.1-.22h-1.55v8.43c0,.68.07,1.1.22,1.27.21.23.52.34.95.34h.38v.3h-4.68v-.3h.39c.47,0,.8-.14.99-.42.12-.17.18-.57.18-1.19v-8.43h-1.33c-.52,0-.88.04-1.1.11-.28.1-.52.3-.72.59s-.32.69-.36,1.19h-.31l.13-2.59h9.01Z"/>
    <path class="uuid-7e56567a-b8a9-49b8-b585-63efee53edd6" d="M256.76,45.1c1.43,0,2.67.54,3.72,1.63s1.57,2.44,1.57,4.07-.53,3.07-1.59,4.17-2.34,1.66-3.84,1.66-2.79-.54-3.83-1.62-1.55-2.48-1.55-4.19.6-3.18,1.79-4.29c1.04-.96,2.27-1.44,3.72-1.44ZM256.61,45.69c-.99,0-1.78.37-2.38,1.1-.74.91-1.11,2.25-1.11,4s.39,3.19,1.16,4.16c.59.74,1.37,1.11,2.34,1.11,1.04,0,1.89-.4,2.57-1.21s1.01-2.08,1.01-3.82c0-1.89-.37-3.29-1.11-4.22-.6-.74-1.42-1.11-2.47-1.11Z"/>
    <path class="uuid-7e56567a-b8a9-49b8-b585-63efee53edd6" d="M267.15,56.38v-.3h.41c.47,0,.8-.15.99-.45.12-.18.18-.58.18-1.2v-7.13c0-.69-.08-1.12-.23-1.29-.21-.24-.53-.36-.94-.36h-.41v-.3h4.49c1.65,0,2.9.19,3.76.56s1.55,1,2.07,1.87.79,1.88.79,3.03c0,1.53-.47,2.82-1.4,3.85-1.05,1.15-2.64,1.72-4.78,1.72h-4.93ZM270.3,55.58c.69.15,1.27.23,1.73.23,1.26,0,2.3-.44,3.13-1.33s1.24-2.08,1.24-3.6-.41-2.73-1.24-3.6-1.9-1.32-3.2-1.32c-.49,0-1.04.08-1.67.24v9.38Z"/>
    <path class="uuid-7e56567a-b8a9-49b8-b585-63efee53edd6" d="M282.38,45.95v4.36h2.42c.63,0,1.05-.09,1.26-.28.28-.25.44-.69.47-1.32h.3v3.84h-.3c-.08-.54-.15-.88-.23-1.03-.1-.19-.26-.34-.48-.45s-.56-.16-1.03-.16h-2.42v3.64c0,.49.02.79.07.89s.12.19.23.25.31.09.62.09h1.87c.62,0,1.08-.04,1.36-.13s.55-.26.81-.51c.34-.34.68-.84,1.03-1.52h.33l-.95,2.77h-8.5v-.3h.39c.26,0,.51-.06.74-.19.17-.09.29-.22.35-.39s.09-.53.09-1.07v-7.17c0-.7-.07-1.13-.21-1.29-.2-.22-.52-.33-.98-.33h-.39v-.3h8.5l.12,2.42h-.32c-.11-.58-.24-.98-.38-1.2s-.34-.38-.61-.5c-.22-.08-.6-.12-1.15-.12h-3.03Z"/>
    <path class="uuid-7e56567a-b8a9-49b8-b585-63efee53edd6" d="M296.65,45.95v4.34h2.01c.46,0,.8-.1,1.01-.31s.36-.61.43-1.21h.3v3.73h-.3c0-.43-.06-.74-.17-.94s-.25-.35-.44-.45-.46-.15-.83-.15h-2.01v3.47c0,.56.04.93.11,1.11.05.14.17.25.34.35.24.13.49.2.75.2h.4v.3h-4.73v-.3h.39c.46,0,.79-.13.99-.4.13-.17.2-.59.2-1.25v-7.13c0-.56-.04-.93-.11-1.11-.05-.14-.17-.25-.33-.35-.23-.13-.48-.2-.75-.2h-.39v-.3h8.21l.11,2.42h-.28c-.14-.52-.31-.89-.49-1.13s-.42-.42-.69-.52-.7-.16-1.27-.16h-2.43Z"/>
    <path class="uuid-7e56567a-b8a9-49b8-b585-63efee53edd6" d="M313.76,56.38h-2.95l-3.73-5.16c-.28.01-.5.02-.68.02-.07,0-.15,0-.23,0s-.17,0-.25-.01v3.21c0,.69.08,1.13.23,1.29.21.24.52.36.93.36h.43v.3h-4.73v-.3h.41c.47,0,.8-.15,1-.46.11-.17.17-.57.17-1.2v-7.13c0-.69-.08-1.13-.23-1.29-.21-.24-.53-.36-.94-.36h-.41v-.3h4.02c1.17,0,2.03.09,2.59.26s1.03.49,1.42.94.58,1,.58,1.64c0,.68-.22,1.27-.66,1.77s-1.13.85-2.05,1.06l2.28,3.16c.52.73.97,1.21,1.34,1.45s.86.39,1.46.46v.3ZM305.93,50.71c.1,0,.19,0,.27,0s.14,0,.19,0c1.05,0,1.85-.23,2.38-.68s.8-1.04.8-1.74-.22-1.25-.65-1.68-1-.65-1.71-.65c-.31,0-.74.05-1.28.15v4.59Z"/>
    <path class="uuid-7e56567a-b8a9-49b8-b585-63efee53edd6" d="M321.24,52.69h-4.27l-.75,1.74c-.18.43-.28.75-.28.96,0,.17.08.32.24.44s.51.21,1.04.25v.3h-3.47v-.3c.46-.08.76-.19.89-.32.28-.26.58-.79.92-1.59l3.88-9.08h.28l3.84,9.18c.31.74.59,1.22.84,1.44s.6.34,1.05.37v.3h-4.35v-.3c.44-.02.74-.09.89-.22s.23-.28.23-.46c0-.24-.11-.62-.33-1.13l-.67-1.59ZM321.01,52.09l-1.87-4.46-1.92,4.46h3.79Z"/>
    <path class="uuid-7e56567a-b8a9-49b8-b585-63efee53edd6" d="M325.43,45.35h2.99l6.74,8.27v-6.36c0-.68-.08-1.1-.23-1.27-.2-.23-.52-.34-.95-.34h-.38v-.3h3.84v.3h-.39c-.47,0-.8.14-.99.42-.12.17-.18.57-.18,1.19v9.3h-.29l-7.27-8.88v6.79c0,.68.07,1.1.22,1.27.21.23.52.34.95.34h.39v.3h-3.84v-.3h.38c.47,0,.81-.14,1-.42.12-.17.18-.57.18-1.19v-7.67c-.32-.37-.56-.62-.73-.74s-.41-.23-.73-.33c-.16-.05-.4-.07-.72-.07v-.3Z"/>
    <path class="uuid-7e56567a-b8a9-49b8-b585-63efee53edd6" d="M347.71,45.1l.25,3.75h-.25c-.34-1.12-.82-1.93-1.44-2.42s-1.37-.74-2.25-.74c-.73,0-1.39.19-1.99.56s-1.06.96-1.4,1.78-.51,1.83-.51,3.03c0,1,.16,1.86.48,2.6s.8,1.29,1.44,1.68,1.38.59,2.2.59c.72,0,1.35-.15,1.9-.46s1.15-.92,1.81-1.83l.25.16c-.55.98-1.2,1.7-1.94,2.16s-1.61.68-2.63.68c-1.83,0-3.24-.68-4.25-2.03-.75-1.01-1.12-2.2-1.12-3.56,0-1.1.25-2.11.74-3.03s1.17-1.64,2.04-2.14,1.81-.76,2.84-.76c.8,0,1.58.2,2.36.59.23.12.39.18.49.18.15,0,.27-.05.38-.15.14-.15.24-.35.3-.61h.28Z"/>
    <path class="uuid-7e56567a-b8a9-49b8-b585-63efee53edd6" d="M353.94,56.08v.3h-4.73v-.3h.39c.46,0,.79-.13.99-.4.13-.17.2-.59.2-1.25v-7.13c0-.56-.04-.93-.11-1.11-.05-.14-.17-.25-.33-.35-.24-.13-.49-.2-.75-.2h-.39v-.3h4.73v.3h-.4c-.45,0-.78.13-.98.4-.14.17-.2.59-.2,1.25v7.13c0,.56.04.93.11,1.11.05.14.17.25.34.35.23.13.48.2.74.2h.4Z"/>
    <path class="uuid-7e56567a-b8a9-49b8-b585-63efee53edd6" d="M361.98,45.1v3.82h-.3c-.1-.73-.27-1.31-.52-1.75s-.61-.78-1.08-1.03-.95-.38-1.45-.38c-.56,0-1.03.17-1.4.52s-.55.74-.55,1.18c0,.34.12.64.35.92.34.41,1.14.95,2.4,1.63,1.03.55,1.73.98,2.11,1.27s.67.64.87,1.05.31.82.31,1.26c0,.83-.32,1.55-.97,2.16s-1.48.91-2.5.91c-.32,0-.62-.02-.9-.07-.17-.03-.52-.13-1.05-.3s-.86-.26-1-.26-.24.04-.32.12-.14.25-.17.5h-.3v-3.78h.3c.14.79.33,1.38.57,1.78s.6.72,1.09.98,1.03.39,1.61.39c.68,0,1.21-.18,1.61-.54s.59-.78.59-1.27c0-.27-.07-.55-.22-.82s-.38-.53-.7-.77c-.21-.16-.79-.51-1.73-1.04s-1.61-.95-2.01-1.27-.7-.66-.91-1.04-.31-.8-.31-1.25c0-.79.3-1.47.91-2.05s1.38-.86,2.32-.86c.59,0,1.21.14,1.86.43.3.14.52.2.64.2.14,0,.26-.04.35-.13s.16-.25.22-.51h.3Z"/>
    <path class="uuid-7e56567a-b8a9-49b8-b585-63efee53edd6" d="M369.7,45.1c1.43,0,2.67.54,3.72,1.63s1.57,2.44,1.57,4.07-.53,3.07-1.59,4.17-2.34,1.66-3.84,1.66-2.79-.54-3.83-1.62-1.55-2.48-1.55-4.19.6-3.18,1.79-4.29c1.04-.96,2.27-1.44,3.72-1.44ZM369.55,45.69c-.99,0-1.78.37-2.38,1.1-.74.91-1.11,2.25-1.11,4s.39,3.19,1.16,4.16c.59.74,1.37,1.11,2.34,1.11,1.04,0,1.89-.4,2.57-1.21s1.01-2.08,1.01-3.82c0-1.89-.37-3.29-1.11-4.22-.6-.74-1.42-1.11-2.47-1.11Z"/>
    <path class="uuid-7e56567a-b8a9-49b8-b585-63efee53edd6" d="M386.63,56.38l-4.26-9.28v7.37c0,.68.07,1.1.22,1.27.2.23.52.34.95.34h.39v.3h-3.84v-.3h.39c.47,0,.8-.14.99-.42.12-.17.18-.57.18-1.19v-7.21c0-.49-.05-.84-.16-1.06-.08-.16-.22-.29-.42-.39s-.53-.16-.98-.16v-.3h3.12l4,8.63,3.94-8.63h3.12v.3h-.38c-.47,0-.81.14-1,.42-.12.17-.18.57-.18,1.19v7.21c0,.68.08,1.1.23,1.27.2.23.52.34.95.34h.38v.3h-4.69v-.3h.39c.47,0,.8-.14.99-.42.12-.17.18-.57.18-1.19v-7.37l-4.25,9.28h-.27Z"/>
    <path class="uuid-7e56567a-b8a9-49b8-b585-63efee53edd6" d="M400.72,45.1c1.43,0,2.67.54,3.72,1.63s1.57,2.44,1.57,4.07-.53,3.07-1.59,4.17-2.34,1.66-3.84,1.66-2.79-.54-3.83-1.62-1.55-2.48-1.55-4.19.6-3.18,1.79-4.29c1.04-.96,2.27-1.44,3.72-1.44ZM400.56,45.69c-.99,0-1.78.37-2.38,1.1-.74.91-1.11,2.25-1.11,4s.39,3.19,1.16,4.16c.59.74,1.37,1.11,2.34,1.11,1.04,0,1.89-.4,2.57-1.21s1.01-2.08,1.01-3.82c0-1.89-.37-3.29-1.11-4.22-.6-.74-1.42-1.11-2.47-1.11Z"/>
    <path class="uuid-7e56567a-b8a9-49b8-b585-63efee53edd6" d="M417.91,56.38h-2.95l-3.73-5.16c-.28.01-.5.02-.68.02-.07,0-.15,0-.23,0s-.17,0-.25-.01v3.21c0,.69.08,1.13.23,1.29.21.24.52.36.93.36h.43v.3h-4.73v-.3h.41c.47,0,.8-.15,1-.46.11-.17.17-.57.17-1.2v-7.13c0-.69-.08-1.13-.23-1.29-.21-.24-.53-.36-.94-.36h-.41v-.3h4.02c1.17,0,2.03.09,2.59.26s1.03.49,1.42.94.58,1,.58,1.64c0,.68-.22,1.27-.66,1.77s-1.13.85-2.05,1.06l2.28,3.16c.52.73.97,1.21,1.34,1.45s.86.39,1.46.46v.3ZM410.08,50.71c.1,0,.19,0,.27,0s.14,0,.19,0c1.05,0,1.85-.23,2.38-.68s.8-1.04.8-1.74-.22-1.25-.65-1.68-1-.65-1.71-.65c-.31,0-.74.05-1.28.15v4.59Z"/>
    <path class="uuid-7e56567a-b8a9-49b8-b585-63efee53edd6" d="M425.39,52.69h-4.27l-.75,1.74c-.18.43-.28.75-.28.96,0,.17.08.32.24.44s.51.21,1.04.25v.3h-3.47v-.3c.46-.08.76-.19.89-.32.28-.26.58-.79.92-1.59l3.88-9.08h.28l3.84,9.18c.31.74.59,1.22.84,1.44s.6.34,1.05.37v.3h-4.35v-.3c.44-.02.74-.09.89-.22s.23-.28.23-.46c0-.24-.11-.62-.33-1.13l-.67-1.59ZM425.16,52.09l-1.87-4.46-1.92,4.46h3.79Z"/>
    <path class="uuid-7e56567a-b8a9-49b8-b585-63efee53edd6" d="M439.38,45.35l-7.25,10.36h4.52c.69,0,1.23-.15,1.6-.46s.7-.92.99-1.85l.27.05-.52,2.92h-8.98v-.3l7.08-10.07h-3.53c-.59,0-1.01.06-1.27.19s-.46.31-.6.55-.26.69-.38,1.35h-.31l.23-2.76h8.16Z"/>
    <path class="uuid-7e56567a-b8a9-49b8-b585-63efee53edd6" d="M447.6,52.69h-4.27l-.75,1.74c-.18.43-.28.75-.28.96,0,.17.08.32.24.44s.51.21,1.04.25v.3h-3.47v-.3c.46-.08.76-.19.89-.32.28-.26.58-.79.92-1.59l3.88-9.08h.28l3.84,9.18c.31.74.59,1.22.84,1.44s.6.34,1.05.37v.3h-4.35v-.3c.44-.02.74-.09.89-.22s.23-.28.23-.46c0-.24-.11-.62-.33-1.13l-.67-1.59ZM447.37,52.09l-1.87-4.46-1.92,4.46h3.79ZM447.78,41.76l-2.4,2.81h-.28l.85-2.81h1.82Z"/>
    <path class="uuid-7e56567a-b8a9-49b8-b585-63efee53edd6" d="M451.79,45.35h2.99l6.74,8.27v-6.36c0-.68-.08-1.1-.23-1.27-.2-.23-.52-.34-.95-.34h-.38v-.3h3.84v.3h-.39c-.47,0-.8.14-.99.42-.12.17-.18.57-.18,1.19v9.3h-.29l-7.27-8.88v6.79c0,.68.07,1.1.22,1.27.21.23.52.34.95.34h.39v.3h-3.84v-.3h.38c.47,0,.81-.14,1-.42.12-.17.18-.57.18-1.19v-7.67c-.32-.37-.56-.62-.73-.74s-.41-.23-.73-.33c-.16-.05-.4-.07-.72-.07v-.3Z"/>
  </g>
</svg>